<?xml version="1.0" encoding="utf-8"?>
<!-- Generator: Adobe Illustrator 21.0.0, SVG Export Plug-In . SVG Version: 6.00 Build 0)  -->
<svg version="1.1" id="Capa_1" xmlns="http://www.w3.org/2000/svg" xmlns:xlink="http://www.w3.org/1999/xlink" x="0px" y="0px"
	 viewBox="0 0 700.5 700.5" style="enable-background:new 0 0 700.5 700.5;" xml:space="preserve">
<g>
	<path d="M575.8,238.7h-91.9v-37.8c0-8.4-6.8-15.2-15.2-15.2H183.8c-8.5,0-15.3,6.9-15.3,15.3l-0.9,37.7H78
		c-8.4,0-15.1,6.8-15.1,15.2v267.6c0,8.4,6.8,15.2,15.2,15.2h91.8v24.7c0,4.6,3.7,8.3,8.3,8.3h10.7v23.7c0,4.6,3.7,8.3,8.3,8.3h49.5
		c4.6,0,8.3-3.7,8.3-8.3v-23.7h143v23.7c0,4.6,3.7,8.3,8.3,8.3h50.5c4.6,0,8.3-3.7,8.3-8.3v-23.7h10.7c4.6,0,8.3-3.7,8.3-8.3v-24.7
		h91.8c8.4,0,15.2-6.8,15.2-15.2V253.9C590.9,245.5,584.1,238.7,575.8,238.7z M448.9,515.7h-246v-265h246V515.7z M303.2,416.7h-24.3
		v13h-12v-13h-26.3c-9.2,0-16.7,7.5-16.7,16.7v55.7c0,9.2,7.5,16.7,16.7,16.7h62.7c9.2,0,16.7-7.5,16.7-16.7v-55.7
		C319.9,424.2,312.4,416.7,303.2,416.7z M277.9,466.7v24h-15v-24c-10.2,0-10.2,0-10.6,0l18.2-20.8l18.1,20.9
		C288.6,466.8,288.5,466.7,277.9,466.7z M413.2,416.7h-26.3v13h-12v-13h-24.3c-9.2,0-16.7,7.5-16.7,16.7v55.7
		c0,9.2,7.5,16.7,16.7,16.7h62.7c9.2,0,16.7-7.5,16.7-16.7v-55.7C429.9,424.2,422.4,416.7,413.2,416.7z M386.9,466.7v24h-15v-24
		c-10.2,0-10.2,0-10.6,0l18.2-20.8l18.1,20.9C397.6,466.8,397.5,466.7,386.9,466.7z M358.2,313.7h-25.3v13h-12v-13h-25.3
		c-9.2,0-16.7,7.5-16.7,16.7v56.7c0,9.2,7.5,16.7,16.7,16.7h62.7c9.2,0,16.7-7.5,16.7-16.7v-56.7
		C374.9,321.2,367.4,313.7,358.2,313.7z M331.9,362.7v24h-15v-24c-10.2,0-10.2,0-10.6,0l18.2-20.8l18.1,20.9
		C342.6,362.8,342.5,362.7,331.9,362.7z"/>
</g>
<g>
	<g>
		<g>
			<path d="M171.9,105.7c35.1,0,70.2,0,105.3,0c55.5,0,111,0,166.5,0c12.7,0,25.5,0,38.2,0c17.4,0,17.4-27,0-27
				c-35.1,0-70.2,0-105.3,0c-55.5,0-111,0-166.5,0c-12.7,0-25.5,0-38.2,0C154.5,78.7,154.5,105.7,171.9,105.7L171.9,105.7z"/>
		</g>
	</g>
	<g>
		<g>
			<path d="M222,20.7c-17.4,18-34.7,36.1-52.1,54.1c-2.5,2.6-5.1,5.3-7.6,7.9c-12.1,12.5,7,31.6,19.1,19.1
				c17.4-18,34.7-36.1,52.1-54.1c2.5-2.6,5.1-5.3,7.6-7.9C253.1,27.2,234.1,8.1,222,20.7L222,20.7z"/>
		</g>
	</g>
	<g>
		<g>
			<path d="M241.1,143.7c-19.9-20.3-39.8-40.7-59.7-61c-12.2-12.4-31.3,6.7-19.1,19.1c19.9,20.3,39.8,40.7,59.7,61
				C234.2,175.2,253.3,156.1,241.1,143.7L241.1,143.7z"/>
		</g>
	</g>
	<g>
		<g>
			<path d="M472.4,82.7c-19.2,20-38.5,40-57.7,60c-12,12.5,7,31.6,19.1,19.1c19.2-20,38.5-40,57.7-60
				C503.5,89.2,484.4,70.1,472.4,82.7L472.4,82.7z"/>
		</g>
	</g>
	<g>
		<g>
			<path d="M414.7,42.8c19.2,19.7,38.5,39.3,57.7,59c12.2,12.4,31.3-6.7,19.1-19.1c-19.2-19.7-38.5-39.3-57.7-59
				C421.6,11.2,402.5,30.3,414.7,42.8L414.7,42.8z"/>
		</g>
	</g>
</g>
</svg>
