<?xml version="1.0" encoding="utf-8"?>
<!-- Generator: Adobe Illustrator 21.0.0, SVG Export Plug-In . SVG Version: 6.00 Build 0)  -->
<svg version="1.1" id="Capa_1" xmlns="http://www.w3.org/2000/svg" xmlns:xlink="http://www.w3.org/1999/xlink" x="0px" y="0px"
	 viewBox="0 0 820 820" style="enable-background:new 0 0 820 820;" xml:space="preserve">
<g>
	<path d="M656.4,319.3h-91.9v-37.8c0-8.4-6.8-15.2-15.2-15.2H264.4c-8.5,0-15.3,6.9-15.3,15.3l-0.9,37.7h-89.6
		c-8.4,0-15.1,6.8-15.1,15.2v267.6c0,8.4,6.8,15.2,15.2,15.2h91.8v24.7c0,4.6,3.7,8.3,8.3,8.3h10.7v23.7c0,4.6,3.7,8.3,8.3,8.3h49.5
		c4.6,0,8.3-3.7,8.3-8.3v-23.7h143v23.7c0,4.6,3.7,8.3,8.3,8.3h50.5c4.6,0,8.3-3.7,8.3-8.3v-23.7h10.7c4.6,0,8.3-3.7,8.3-8.3v-24.7
		h91.8c8.4,0,15.2-6.8,15.2-15.2V334.5C671.5,326.1,664.7,319.3,656.4,319.3z M529.5,596.3h-246v-265h246V596.3z M383.8,497.3h-24.3
		v13h-12v-13h-26.3c-9.2,0-16.7,7.5-16.7,16.7v55.7c0,9.2,7.5,16.7,16.7,16.7h62.7c9.2,0,16.7-7.5,16.7-16.7V514
		C400.5,504.8,393,497.3,383.8,497.3z M358.5,547.3v24h-15v-24c-10.2,0-10.2,0-10.6,0l18.2-20.8l18.1,20.9
		C369.2,547.4,369.1,547.3,358.5,547.3z M493.8,497.3h-26.3v13h-12v-13h-24.3c-9.2,0-16.7,7.5-16.7,16.7v55.7
		c0,9.2,7.5,16.7,16.7,16.7h62.7c9.2,0,16.7-7.5,16.7-16.7V514C510.5,504.8,503,497.3,493.8,497.3z M467.5,547.3v24h-15v-24
		c-10.2,0-10.2,0-10.6,0l18.2-20.8l18.1,20.9C478.2,547.4,478.1,547.3,467.5,547.3z M438.8,394.3h-25.3v13h-12v-13h-25.3
		c-9.2,0-16.7,7.5-16.7,16.7v56.7c0,9.2,7.5,16.7,16.7,16.7h62.7c9.2,0,16.7-7.5,16.7-16.7V411C455.5,401.8,448,394.3,438.8,394.3z
		 M412.5,443.3v24h-15v-24c-10.2,0-10.2,0-10.6,0l18.2-20.8l18.1,20.9C423.2,443.4,423.1,443.3,412.5,443.3z"/>
</g>
<g>
	<g>
		<g>
			<path d="M252.5,186.3c35.1,0,70.2,0,105.3,0c55.5,0,111,0,166.5,0c12.7,0,25.5,0,38.2,0c17.4,0,17.4-27,0-27
				c-35.1,0-70.2,0-105.3,0c-55.5,0-111,0-166.5,0c-12.7,0-25.5,0-38.2,0C235.1,159.3,235.1,186.3,252.5,186.3L252.5,186.3z"/>
		</g>
	</g>
	<g>
		<g>
			<path d="M302.6,101.3c-17.4,18-34.7,36.1-52.1,54.1c-2.5,2.6-5.1,5.3-7.6,7.9c-12.1,12.5,7,31.6,19.1,19.1
				c17.4-18,34.7-36.1,52.1-54.1c2.5-2.6,5.1-5.3,7.6-7.9C333.7,107.8,314.7,88.7,302.6,101.3L302.6,101.3z"/>
		</g>
	</g>
	<g>
		<g>
			<path d="M321.7,224.3c-19.9-20.3-39.8-40.7-59.7-61c-12.2-12.4-31.3,6.7-19.1,19.1c19.9,20.3,39.8,40.7,59.7,61
				C314.8,255.8,333.9,236.7,321.7,224.3L321.7,224.3z"/>
		</g>
	</g>
	<g>
		<g>
			<path d="M553,163.3c-19.2,20-38.5,40-57.7,60c-12,12.5,7,31.6,19.1,19.1c19.2-20,38.5-40,57.7-60
				C584.1,169.8,565,150.7,553,163.3L553,163.3z"/>
		</g>
	</g>
	<g>
		<g>
			<path d="M495.3,123.4c19.2,19.7,38.5,39.3,57.7,59c12.2,12.4,31.3-6.7,19.1-19.1c-19.2-19.7-38.5-39.3-57.7-59
				C502.2,91.8,483.1,110.9,495.3,123.4L495.3,123.4z"/>
		</g>
	</g>
</g>
</svg>
