<?xml version="1.0" encoding="utf-8"?>
<!-- Generator: Adobe Illustrator 21.0.0, SVG Export Plug-In . SVG Version: 6.00 Build 0)  -->
<svg version="1.1" id="Capa_1" xmlns="http://www.w3.org/2000/svg" xmlns:xlink="http://www.w3.org/1999/xlink" x="0px" y="0px"
	 viewBox="0 0 700.5 700.5" style="enable-background:new 0 0 700.5 700.5;" xml:space="preserve">
<style type="text/css">
	.st0{display:none;}
	.st1{display:inline;}
</style>
<g>
	<path d="M516.1,193.8c-3.7-3.7-8.2-5.6-13.3-5.6h-303c-5.1,0-9.6,1.9-13.3,5.6c-3.7,3.7-5.6,8.2-5.6,13.3v56.8h-47.4
		c-5.3,0-11.1,1.3-17.3,3.8c-6.2,2.6-11.2,5.7-14.9,9.5l-58.7,58.7c-2.6,2.6-4.8,5.5-6.7,8.9c-1.9,3.3-3.3,6.4-4.1,9
		c-0.9,2.7-1.5,6.3-1.9,11c-0.4,4.6-0.6,8-0.7,10.2s-0.1,5.9,0,11.2c0.1,5.3,0.1,8.8,0.1,10.4v94.7c-5.1,0-9.6,1.9-13.3,5.6
		c-3.7,3.7-5.6,8.2-5.6,13.3c0,3,0.4,5.6,1.2,7.8c0.8,2.3,2.1,4.1,4,5.5s3.5,2.5,4.9,3.4s3.7,1.5,7,1.8s5.5,0.5,6.7,0.6
		s3.7,0.1,7.5,0c3.9-0.1,6.1-0.1,6.7-0.1h18.9c0,20.9,7.4,38.8,22.2,53.6s32.7,22.2,53.6,22.2s38.8-7.4,53.6-22.2
		c14.8-14.8,22.2-32.7,22.2-53.6h113.6c0,20.9,7.4,38.8,22.2,53.6c14.8,14.8,32.6,22.2,53.6,22.2c20.9,0,38.8-7.4,53.6-22.2
		s22.2-32.7,22.2-53.6c0.6,0,2.8,0,6.7,0.1c3.8,0.1,6.4,0.1,7.5,0c1.2-0.1,3.4-0.3,6.7-0.6s5.6-0.9,7-1.8c1.4-0.9,3-2,4.9-3.4
		s3.2-3.2,4-5.5s1.2-4.9,1.2-7.8v-303C521.8,202,519.9,197.6,516.1,193.8z M169.6,555.8c-7.5,7.5-16.4,11.3-26.6,11.3
		c-10.3,0-19.1-3.8-26.6-11.3s-11.2-16.4-11.2-26.6c0-10.3,3.8-19.1,11.2-26.6c7.5-7.5,16.4-11.2,26.6-11.2
		c10.3,0,19.1,3.7,26.6,11.2c7.5,7.5,11.2,16.4,11.2,26.6S177.1,548.3,169.6,555.8z M180.8,377.6H67.2v-8.9c0-2.6,0.9-4.7,2.7-6.5
		l57.7-57.7c1.8-1.8,3.9-2.7,6.5-2.7h46.8v75.8H180.8z M434.7,555.8c-7.5,7.5-16.4,11.3-26.6,11.3c-10.3,0-19.1-3.8-26.6-11.3
		s-11.2-16.4-11.2-26.6c0-10.3,3.7-19.1,11.2-26.6s16.4-11.2,26.6-11.2c10.3,0,19.1,3.7,26.6,11.2s11.2,16.4,11.2,26.6
		C446,539.4,442.2,548.3,434.7,555.8z"/>
</g>
<g>
	<g>
		<g>
			<path d="M625.9,518.2c0-36.3,0-72.5,0-108.8c0-57.3,0-114.6,0-171.9c0-13.1,0-26.2,0-39.2c0-17.4-27-17.4-27,0
				c0,36.3,0,72.5,0,108.8c0,57.3,0,114.6,0,171.9c0,13.1,0,26.2,0,39.2C598.9,535.6,625.9,535.6,625.9,518.2L625.9,518.2z"/>
		</g>
	</g>
	<g>
		<g>
			<path d="M540.9,466.2c18,17.9,36.1,35.8,54.1,53.7c2.6,2.6,5.3,5.2,7.9,7.9c12.3,12.3,31.4-6.8,19.1-19.1
				c-18.1-17.9-36.1-35.8-54.1-53.7c-2.6-2.6-5.3-5.2-7.9-7.9C547.6,434.8,528.5,453.9,540.9,466.2L540.9,466.2z"/>
		</g>
	</g>
	<g>
		<g>
			<path d="M663.9,447.1c-17.8,18-35.6,35.9-53.4,53.9c-2.5,2.6-5.1,5.1-7.6,7.7c-12.2,12.4,6.8,31.5,19.1,19.1
				c17.8-18,35.6-35.9,53.4-53.9c2.5-2.6,5.1-5.1,7.6-7.7C695.2,453.8,676.1,434.7,663.9,447.1L663.9,447.1z"/>
		</g>
	</g>
	<g>
		<g>
			<path d="M602.9,207.8c20,19.9,40,39.7,60,59.6c12.3,12.3,31.4-6.8,19.1-19.1c-20-19.9-40-39.7-60-59.6
				C609.6,176.4,590.5,195.5,602.9,207.8L602.9,207.8z"/>
		</g>
	</g>
	<g>
		<g>
			<path d="M562.9,267.3c19.7-19.9,39.3-39.7,59-59.6c12.2-12.4-6.8-31.5-19.1-19.1c-19.7,19.9-39.3,39.7-59,59.6
				C531.6,260.6,550.7,279.7,562.9,267.3L562.9,267.3z"/>
		</g>
	</g>
</g>
<g class="st0">
	<g class="st1">
		<g>
			<path d="M190.4,106.7c35.1,0,70.2,0,105.3,0c55.5,0,111,0,166.5,0c12.7,0,25.5,0,38.2,0c17.4,0,17.4-27,0-27
				c-35.1,0-70.2,0-105.3,0c-55.5,0-111,0-166.5,0c-12.7,0-25.5,0-38.2,0C173,79.7,173,106.7,190.4,106.7L190.4,106.7z"/>
		</g>
	</g>
	<g class="st1">
		<g>
			<path d="M240.5,21.7c-17.4,18-34.7,36.1-52.1,54.1c-2.5,2.6-5.1,5.3-7.6,7.9c-12.1,12.5,7,31.6,19.1,19.1
				c17.4-18,34.7-36.1,52.1-54.1c2.5-2.6,5.1-5.3,7.6-7.9C271.6,28.2,252.6,9.1,240.5,21.7L240.5,21.7z"/>
		</g>
	</g>
	<g class="st1">
		<g>
			<path d="M259.6,144.7c-19.9-20.3-39.8-40.7-59.7-61c-12.2-12.4-31.3,6.7-19.1,19.1c19.9,20.3,39.8,40.7,59.7,61
				C252.7,176.2,271.8,157.1,259.6,144.7L259.6,144.7z"/>
		</g>
	</g>
	<g class="st1">
		<g>
			<path d="M490.9,83.7c-19.2,20-38.5,40-57.7,60c-12,12.5,7,31.6,19.1,19.1c19.2-20,38.5-40,57.7-60
				C522,90.2,502.9,71.1,490.9,83.7L490.9,83.7z"/>
		</g>
	</g>
	<g class="st1">
		<g>
			<path d="M433.2,43.8c19.2,19.7,38.5,39.3,57.7,59c12.2,12.4,31.3-6.7,19.1-19.1c-19.2-19.7-38.5-39.3-57.7-59
				C440.1,12.2,421,31.3,433.2,43.8L433.2,43.8z"/>
		</g>
	</g>
</g>
</svg>
