<?xml version="1.0" encoding="utf-8"?>
<!-- Generator: Adobe Illustrator 21.0.0, SVG Export Plug-In . SVG Version: 6.00 Build 0)  -->
<svg version="1.1" id="Capa_1" xmlns="http://www.w3.org/2000/svg" xmlns:xlink="http://www.w3.org/1999/xlink" x="0px" y="0px"
	 viewBox="0 0 700.5 700.5" style="enable-background:new 0 0 700.5 700.5;" xml:space="preserve">
<g>
	<path d="M529.6,207.3c-3.7-3.7-8.2-5.6-13.3-5.6h-303c-5.1,0-9.6,1.9-13.3,5.6c-3.7,3.7-5.6,8.2-5.6,13.3v56.8H147
		c-5.3,0-11.1,1.3-17.3,3.8c-6.2,2.6-11.2,5.7-14.9,9.5l-58.7,58.7c-2.6,2.6-4.8,5.5-6.7,8.9c-1.9,3.3-3.3,6.4-4.1,9
		c-0.9,2.7-1.5,6.3-1.9,11c-0.4,4.6-0.6,8-0.7,10.2s-0.1,5.9,0,11.2c0.1,5.3,0.1,8.8,0.1,10.4v94.7c-5.1,0-9.6,1.9-13.3,5.6
		c-3.7,3.7-5.6,8.2-5.6,13.3c0,3,0.4,5.6,1.2,7.8c0.8,2.3,2.1,4.1,4,5.5s3.5,2.5,4.9,3.4s3.7,1.5,7,1.8s5.5,0.5,6.7,0.6
		s3.7,0.1,7.5,0c3.9-0.1,6.1-0.1,6.7-0.1h18.9c0,20.9,7.4,38.8,22.2,53.6s32.7,22.2,53.6,22.2s38.8-7.4,53.6-22.2
		c14.8-14.8,22.2-32.7,22.2-53.6H346c0,20.9,7.4,38.8,22.2,53.6c14.8,14.8,32.6,22.2,53.6,22.2c20.9,0,38.8-7.4,53.6-22.2
		s22.2-32.7,22.2-53.6c0.6,0,2.8,0,6.7,0.1c3.8,0.1,6.4,0.1,7.5,0c1.2-0.1,3.4-0.3,6.7-0.6s5.6-0.9,7-1.8c1.4-0.9,3-2,4.9-3.4
		s3.2-3.2,4-5.5s1.2-4.9,1.2-7.8v-303C535.3,215.5,533.4,211.1,529.6,207.3z M183.1,569.3c-7.5,7.5-16.4,11.3-26.6,11.3
		c-10.3,0-19.1-3.8-26.6-11.3s-11.2-16.4-11.2-26.6c0-10.3,3.8-19.1,11.2-26.6c7.5-7.5,16.4-11.2,26.6-11.2
		c10.3,0,19.1,3.7,26.6,11.2c7.5,7.5,11.2,16.4,11.2,26.6S190.6,561.8,183.1,569.3z M194.3,391.1H80.7v-8.9c0-2.6,0.9-4.7,2.7-6.5
		l57.7-57.7c1.8-1.8,3.9-2.7,6.5-2.7h46.8v75.8H194.3z M448.2,569.3c-7.5,7.5-16.4,11.3-26.6,11.3c-10.3,0-19.1-3.8-26.6-11.3
		s-11.2-16.4-11.2-26.6c0-10.3,3.7-19.1,11.2-26.6s16.4-11.2,26.6-11.2c10.3,0,19.1,3.7,26.6,11.2s11.2,16.4,11.2,26.6
		C459.5,552.9,455.7,561.8,448.2,569.3z"/>
</g>
<g>
	<g>
		<g>
			<path d="M203.9,120.2c35.1,0,70.2,0,105.3,0c55.5,0,111,0,166.5,0c12.7,0,25.5,0,38.2,0c17.4,0,17.4-27,0-27
				c-35.1,0-70.2,0-105.3,0c-55.5,0-111,0-166.5,0c-12.7,0-25.5,0-38.2,0C186.5,93.2,186.5,120.2,203.9,120.2L203.9,120.2z"/>
		</g>
	</g>
	<g>
		<g>
			<path d="M254,35.2c-17.4,18-34.7,36.1-52.1,54.1c-2.5,2.6-5.1,5.3-7.6,7.9c-12.1,12.5,7,31.6,19.1,19.1
				c17.4-18,34.7-36.1,52.1-54.1c2.5-2.6,5.1-5.3,7.6-7.9C285.1,41.7,266.1,22.6,254,35.2L254,35.2z"/>
		</g>
	</g>
	<g>
		<g>
			<path d="M273.1,158.2c-19.9-20.3-39.8-40.7-59.7-61c-12.2-12.4-31.3,6.7-19.1,19.1c19.9,20.3,39.8,40.7,59.7,61
				C266.2,189.7,285.3,170.6,273.1,158.2L273.1,158.2z"/>
		</g>
	</g>
	<g>
		<g>
			<path d="M504.4,97.2c-19.2,20-38.5,40-57.7,60c-12,12.5,7,31.6,19.1,19.1c19.2-20,38.5-40,57.7-60
				C535.5,103.7,516.4,84.6,504.4,97.2L504.4,97.2z"/>
		</g>
	</g>
	<g>
		<g>
			<path d="M446.7,57.3c19.2,19.7,38.5,39.3,57.7,59c12.2,12.4,31.3-6.7,19.1-19.1c-19.2-19.7-38.5-39.3-57.7-59
				C453.6,25.7,434.5,44.8,446.7,57.3L446.7,57.3z"/>
		</g>
	</g>
</g>
</svg>
