<?xml version="1.0" encoding="utf-8"?>
<!-- Generator: Adobe Illustrator 21.0.0, SVG Export Plug-In . SVG Version: 6.00 Build 0)  -->
<svg version="1.1" id="Capa_1" xmlns="http://www.w3.org/2000/svg" xmlns:xlink="http://www.w3.org/1999/xlink" x="0px" y="0px"
	 viewBox="0 0 552 454" style="enable-background:new 0 0 552 454;" xml:space="preserve">
<g>
	<path d="M521.7,26.6c-3.7-3.7-8.2-5.6-13.3-5.6h-303c-5.1,0-9.6,1.9-13.3,5.6c-3.7,3.7-5.6,8.2-5.6,13.3v56.8h-47.4
		c-5.3,0-11.1,1.3-17.3,3.8c-6.2,2.6-11.2,5.7-14.9,9.5l-58.6,58.6c-2.6,2.6-4.8,5.5-6.7,8.9c-1.9,3.3-3.3,6.4-4.1,9
		c-0.9,2.7-1.5,6.3-1.9,11c-0.4,4.6-0.6,8-0.7,10.2c-0.1,2.2-0.1,5.9,0,11.2c0.1,5.3,0.1,8.8,0.1,10.4V324c-5.1,0-9.6,1.9-13.3,5.6
		c-3.7,3.7-5.6,8.2-5.6,13.3c0,3,0.4,5.6,1.2,7.8c0.8,2.3,2.1,4.1,4,5.5c1.9,1.4,3.5,2.5,4.9,3.4c1.4,0.9,3.7,1.5,7,1.8
		c3.3,0.3,5.5,0.5,6.7,0.6c1.2,0.1,3.7,0.1,7.5,0c3.9-0.1,6.1-0.1,6.7-0.1h18.9c0,20.9,7.4,38.8,22.2,53.6
		c14.8,14.8,32.7,22.2,53.6,22.2c20.9,0,38.8-7.4,53.6-22.2c14.8-14.8,22.2-32.7,22.2-53.6H338c0,20.9,7.4,38.8,22.2,53.6
		c14.8,14.8,32.6,22.2,53.6,22.2c20.9,0,38.8-7.4,53.6-22.2c14.8-14.8,22.2-32.7,22.2-53.6c0.6,0,2.8,0,6.7,0.1
		c3.8,0.1,6.4,0.1,7.5,0c1.2-0.1,3.4-0.3,6.7-0.6c3.3-0.3,5.6-0.9,7-1.8c1.4-0.9,3-2,4.9-3.4c1.9-1.4,3.2-3.2,4-5.5
		c0.8-2.3,1.2-4.9,1.2-7.8v-303C527.4,34.8,525.5,30.4,521.7,26.6z M175.2,388.5c-7.5,7.5-16.4,11.3-26.6,11.3
		c-10.3,0-19.1-3.8-26.6-11.3c-7.5-7.5-11.2-16.4-11.2-26.6c0-10.3,3.8-19.1,11.2-26.6c7.5-7.5,16.4-11.2,26.6-11.2
		c10.3,0,19.1,3.7,26.6,11.2c7.5,7.5,11.2,16.4,11.2,26.6C186.4,372.2,182.7,381.1,175.2,388.5z M186.4,210.4H72.8v-8.9
		c0-2.6,0.9-4.7,2.7-6.5l57.7-57.7c1.8-1.8,3.9-2.7,6.5-2.7h46.8V210.4z M440.3,388.5c-7.5,7.5-16.4,11.3-26.6,11.3
		c-10.3,0-19.1-3.8-26.6-11.3c-7.5-7.5-11.2-16.4-11.2-26.6c0-10.3,3.7-19.1,11.2-26.6c7.5-7.5,16.4-11.2,26.6-11.2
		c10.3,0,19.1,3.7,26.6,11.2c7.5,7.5,11.2,16.4,11.2,26.6C451.6,372.2,447.8,381.1,440.3,388.5z"/>
</g>
</svg>
