<?xml version="1.0" encoding="utf-8"?>
<!-- Generator: Adobe Illustrator 21.0.0, SVG Export Plug-In . SVG Version: 6.00 Build 0)  -->
<svg version="1.1" id="Capa_1" xmlns="http://www.w3.org/2000/svg" xmlns:xlink="http://www.w3.org/1999/xlink" x="0px" y="0px"
	 viewBox="0 0 820 820" style="enable-background:new 0 0 820 820;" xml:space="preserve">
<style type="text/css">
	.st0{display:none;}
	.st1{display:inline;}
</style>
<g>
	<path d="M595.2,272.9c-3.7-3.7-8.2-5.6-13.3-5.6h-303c-5.1,0-9.6,1.9-13.3,5.6c-3.7,3.7-5.6,8.2-5.6,13.3v56.8h-47.4
		c-5.3,0-11.1,1.3-17.3,3.8c-6.2,2.6-11.2,5.7-14.9,9.5L121.7,415c-2.6,2.6-4.8,5.5-6.7,8.9c-1.9,3.3-3.3,6.4-4.1,9
		c-0.9,2.7-1.5,6.3-1.9,11c-0.4,4.6-0.6,8-0.7,10.2c-0.1,2.2-0.1,5.9,0,11.2c0.1,5.3,0.1,8.8,0.1,10.4v94.7c-5.1,0-9.6,1.9-13.3,5.6
		c-3.7,3.7-5.6,8.2-5.6,13.3c0,3,0.4,5.6,1.2,7.8c0.8,2.3,2.1,4.1,4,5.5c1.9,1.4,3.5,2.5,4.9,3.4c1.4,0.9,3.7,1.5,7,1.8
		c3.3,0.3,5.5,0.5,6.7,0.6c1.2,0.1,3.7,0.1,7.5,0c3.9-0.1,6.1-0.1,6.7-0.1h18.9c0,20.9,7.4,38.8,22.2,53.6
		c14.8,14.8,32.7,22.2,53.6,22.2c20.9,0,38.8-7.4,53.6-22.2c14.8-14.8,22.2-32.7,22.2-53.6h113.6c0,20.9,7.4,38.8,22.2,53.6
		c14.8,14.8,32.6,22.2,53.6,22.2c20.9,0,38.8-7.4,53.6-22.2c14.8-14.8,22.2-32.7,22.2-53.6c0.6,0,2.8,0,6.7,0.1
		c3.8,0.1,6.4,0.1,7.5,0c1.2-0.1,3.4-0.3,6.7-0.6c3.3-0.3,5.6-0.9,7-1.8c1.4-0.9,3-2,4.9-3.4c1.9-1.4,3.2-3.2,4-5.5
		c0.8-2.3,1.2-4.9,1.2-7.8v-303C600.9,281.1,599,276.7,595.2,272.9z M248.7,634.9c-7.5,7.5-16.4,11.3-26.6,11.3
		c-10.3,0-19.1-3.8-26.6-11.3c-7.5-7.5-11.2-16.4-11.2-26.6c0-10.3,3.8-19.1,11.2-26.6c7.5-7.5,16.4-11.2,26.6-11.2
		c10.3,0,19.1,3.7,26.6,11.2c7.5,7.5,11.2,16.4,11.2,26.6C259.9,618.5,256.2,627.4,248.7,634.9z M259.9,456.7H146.3v-8.9
		c0-2.6,0.9-4.7,2.7-6.5l57.7-57.7c1.8-1.8,3.9-2.7,6.5-2.7h46.8V456.7z M513.8,634.9c-7.5,7.5-16.4,11.3-26.6,11.3
		c-10.3,0-19.1-3.8-26.6-11.3c-7.5-7.5-11.2-16.4-11.2-26.6c0-10.3,3.7-19.1,11.2-26.6c7.5-7.5,16.4-11.2,26.6-11.2
		c10.3,0,19.1,3.7,26.6,11.2c7.5,7.5,11.2,16.4,11.2,26.6C525.1,618.5,521.3,627.4,513.8,634.9z"/>
</g>
<g>
	<g>
		<g>
			<path d="M705,597.3c0-36.3,0-72.5,0-108.8c0-57.3,0-114.6,0-171.9c0-13.1,0-26.2,0-39.2c0-17.4-27-17.4-27,0
				c0,36.3,0,72.5,0,108.8c0,57.3,0,114.6,0,171.9c0,13.1,0,26.2,0,39.2C678,614.7,705,614.7,705,597.3L705,597.3z"/>
		</g>
	</g>
	<g>
		<g>
			<path d="M620,545.3c18,17.9,36.1,35.8,54.1,53.7c2.6,2.6,5.3,5.2,7.9,7.9c12.3,12.3,31.4-6.8,19.1-19.1
				C683,569.9,665,552,647,534.1c-2.6-2.6-5.3-5.2-7.9-7.9C626.7,513.9,607.6,533,620,545.3L620,545.3z"/>
		</g>
	</g>
	<g>
		<g>
			<path d="M743,526.2c-17.8,18-35.6,35.9-53.4,53.9c-2.5,2.6-5.1,5.1-7.6,7.7c-12.2,12.4,6.8,31.5,19.1,19.1
				c17.8-18,35.6-35.9,53.4-53.9c2.5-2.6,5.1-5.1,7.6-7.7C774.3,532.9,755.2,513.8,743,526.2L743,526.2z"/>
		</g>
	</g>
	<g>
		<g>
			<path d="M682,286.9c20,19.9,40,39.7,60,59.6c12.3,12.3,31.4-6.8,19.1-19.1c-20-19.9-40-39.7-60-59.6
				C688.7,255.5,669.6,274.6,682,286.9L682,286.9z"/>
		</g>
	</g>
	<g>
		<g>
			<path d="M642,346.4c19.7-19.9,39.3-39.7,59-59.6c12.2-12.4-6.8-31.5-19.1-19.1c-19.7,19.9-39.3,39.7-59,59.6
				C610.7,339.7,629.8,358.8,642,346.4L642,346.4z"/>
		</g>
	</g>
</g>
<g class="st0">
	<g class="st1">
		<g>
			<path d="M269.5,185.8c35.1,0,70.2,0,105.3,0c55.5,0,111,0,166.5,0c12.7,0,25.5,0,38.2,0c17.4,0,17.4-27,0-27
				c-35.1,0-70.2,0-105.3,0c-55.5,0-111,0-166.5,0c-12.7,0-25.5,0-38.2,0C252.1,158.8,252.1,185.8,269.5,185.8L269.5,185.8z"/>
		</g>
	</g>
	<g class="st1">
		<g>
			<path d="M319.6,100.8c-17.4,18-34.7,36.1-52.1,54.1c-2.5,2.6-5.1,5.3-7.6,7.9c-12.1,12.5,7,31.6,19.1,19.1
				c17.4-18,34.7-36.1,52.1-54.1c2.5-2.6,5.1-5.3,7.6-7.9C350.7,107.3,331.7,88.2,319.6,100.8L319.6,100.8z"/>
		</g>
	</g>
	<g class="st1">
		<g>
			<path d="M338.7,223.8c-19.9-20.3-39.8-40.7-59.7-61c-12.2-12.4-31.3,6.7-19.1,19.1c19.9,20.3,39.8,40.7,59.7,61
				C331.8,255.3,350.9,236.2,338.7,223.8L338.7,223.8z"/>
		</g>
	</g>
	<g class="st1">
		<g>
			<path d="M570,162.8c-19.2,20-38.5,40-57.7,60c-12,12.5,7,31.6,19.1,19.1c19.2-20,38.5-40,57.7-60
				C601.1,169.3,582,150.2,570,162.8L570,162.8z"/>
		</g>
	</g>
	<g class="st1">
		<g>
			<path d="M512.3,122.9c19.2,19.7,38.5,39.3,57.7,59c12.2,12.4,31.3-6.7,19.1-19.1c-19.2-19.7-38.5-39.3-57.7-59
				C519.2,91.3,500.1,110.4,512.3,122.9L512.3,122.9z"/>
		</g>
	</g>
</g>
</svg>
