<?xml version="1.0" encoding="iso-8859-1"?>
<!-- Generator: Adobe Illustrator 16.0.0, SVG Export Plug-In . SVG Version: 6.00 Build 0)  -->
<!DOCTYPE svg PUBLIC "-//W3C//DTD SVG 1.1//EN" "http://www.w3.org/Graphics/SVG/1.1/DTD/svg11.dtd">
<svg version="1.1" id="Capa_1" xmlns="http://www.w3.org/2000/svg" xmlns:xlink="http://www.w3.org/1999/xlink" x="0px" y="0px"
	 width="31.73px" height="31.73px" viewBox="0 0 31.73 31.73" style="enable-background:new 0 0 31.73 31.73;" xml:space="preserve"
	>
<g>
	<g>
		<path d="M2.884,28.016V8.924h7.057V1.867h13.362v15.411c0.222-0.019,0.444-0.034,0.67-0.034c0.408,0,0.806,0.041,1.197,0.102V0
			H8.755l-7.74,8.171v21.711h16.965c-0.46-0.562-0.843-1.189-1.132-1.867H2.884z M8.072,3.436v3.621H4.643L8.072,3.436z"/>
		<rect x="5.122" y="14.174" width="15.825" height="2.104"/>
		<path d="M20.036,18.331H5.122v2.104h12.602C18.344,19.586,19.13,18.87,20.036,18.331z"/>
		<path d="M5.122,24.779h11.12c0.02-0.73,0.133-1.438,0.342-2.104H5.122V24.779z"/>
		<path d="M23.973,18.244c-3.724,0-6.743,3.02-6.743,6.743s3.02,6.743,6.743,6.743s6.743-3.02,6.743-6.743
			S27.696,18.244,23.973,18.244z M27.196,25.988h-2.224v2.225h-2v-2.225h-2.224v-2h2.224v-2.225h2v2.225h2.224V25.988z"/>
	</g>
</g>
<g>
</g>
<g>
</g>
<g>
</g>
<g>
</g>
<g>
</g>
<g>
</g>
<g>
</g>
<g>
</g>
<g>
</g>
<g>
</g>
<g>
</g>
<g>
</g>
<g>
</g>
<g>
</g>
<g>
</g>
</svg>
