<?xml version="1.0" encoding="utf-8"?>
<!-- Generator: Adobe Illustrator 21.0.0, SVG Export Plug-In . SVG Version: 6.00 Build 0)  -->
<svg version="1.1" id="Layer_1" xmlns="http://www.w3.org/2000/svg" xmlns:xlink="http://www.w3.org/1999/xlink" x="0px" y="0px"
	 viewBox="0 0 490.7 368" style="enable-background:new 0 0 490.7 368;" xml:space="preserve">
<style type="text/css">
	.st0{fill:#FFD630;}
	.st1{fill:#F55F5F;}
	.st2{fill:#C94545;}
	.st3{fill:#E84F4F;}
	.st4{fill:#00CC96;}
	.st5{fill:#E04C4C;}
	.st6{fill:#19C287;}
</style>
<rect class="st0" width="490.7" height="368"/>
<path class="st1" d="M93.3,70.9l138.3,29.7c5.4,0.9,8.4,1.7,9.7,1.7c1.4-0.1,3.6-0.9,12.3-2.6l138.3-28.8c6.3-1.3,11,1.7,11,8.5
	v180.8c0,6.8-5,14.2-11,16.3l-138.3,49.1c-1.4,0.5-2.7,0.7-4,0.6c-0.3,0-0.6,0-1,0H237c-0.4,0-0.9,0-1.3-0.1c-1.3,0.1-2.7,0-4.2-0.5
	L93.2,276.5c-6.1-2.1-11-9.5-11-16.3V79.3C82.3,72.5,87,69.5,93.3,70.9L93.3,70.9L93.3,70.9z"/>
<path class="st2" d="M240.5,102.2c0.3,0,0.6,0.1,0.8,0c1.4-0.1,3.6-0.9,12.3-2.6l138.3-28.8c6.3-1.3,11,1.7,11,8.5v180.8
	c0,6.8-5,14.2-11,16.3l-138.3,49.1c-1.4,0.5-2.7,0.7-4,0.6c-0.3,0-0.6,0-1,0h-8.2V102.2H240.5L240.5,102.2z"/>
<path class="st3" d="M396.2,70.3L261.9,50.9c-5-0.7-14.4-1.1-20.6-0.3l-55.6,7.2l-4.1,0.5L94.7,69.6c-6.1,0.8-7.2,2.8-1.7,3.9
	l137.3,27.9c2.9,0.6,7.1,1.6,11,1.7c3.5,0,6.8-0.8,9.6-1.4l72.8-14.6l9.5-1.7l61.4-11.3C400.4,73.1,401.3,71,396.2,70.3L396.2,70.3
	L396.2,70.3L396.2,70.3z"/>
<path class="st4" d="M292.5,55.3L156.8,86.6l34,6.9l125.1-34.8L292.5,55.3z"/>
<path class="st5" d="M190.8,93.5c2.1,28.7,5.5,54.3-12,75.3l-29.4-14.6L190.8,93.5z"/>
<path class="st6" d="M156.8,86.6c3.6,20.2,6.3,52-11.9,61.2l34,17.2c21-15,10.9-65.1,12-71.5L156.8,86.6L156.8,86.6L156.8,86.6z"/>
</svg>
