<?xml version="1.0" encoding="utf-8"?>
<!-- Generator: Adobe Illustrator 21.0.0, SVG Export Plug-In . SVG Version: 6.00 Build 0)  -->
<svg version="1.1" id="Layer_1" xmlns="http://www.w3.org/2000/svg" xmlns:xlink="http://www.w3.org/1999/xlink" x="0px" y="0px"
	 viewBox="0 0 368 490.7" style="enable-background:new 0 0 368 490.7;" xml:space="preserve">
<style type="text/css">
	.st0{fill:#FFD630;}
	.st1{fill:#F55F5F;}
	.st2{fill:#C94545;}
	.st3{fill:#E84F4F;}
	.st4{fill:#00CC96;}
	.st5{fill:#E04C4C;}
	.st6{fill:#19C287;}
</style>
<rect class="st0" width="368" height="490.7"/>
<path class="st1" d="M32,132.2l138.3,29.7c5.4,0.9,8.4,1.7,9.7,1.7c1.4-0.1,3.6-0.9,12.3-2.6l138.3-28.8c6.3-1.3,11,1.7,11,8.5
	v180.8c0,6.8-5,14.2-11,16.3l-138.3,49.1c-1.4,0.5-2.7,0.7-4,0.6c-0.3,0-0.6,0-1,0h-11.6c-0.4,0-0.9,0-1.3-0.1
	c-1.3,0.1-2.7,0-4.2-0.5L31.9,337.8c-6.1-2.1-11-9.5-11-16.3V140.6C21,133.8,25.7,130.8,32,132.2L32,132.2L32,132.2z"/>
<path class="st2" d="M179.2,163.5c0.3,0,0.6,0.1,0.8,0c1.4-0.1,3.6-0.9,12.3-2.6l138.3-28.8c6.3-1.3,11,1.7,11,8.5v180.8
	c0,6.8-5,14.2-11,16.3l-138.3,49.1c-1.4,0.5-2.7,0.7-4,0.6c-0.3,0-0.6,0-1,0h-8.2V163.5H179.2L179.2,163.5z"/>
<path class="st3" d="M334.9,131.6l-134.3-19.4c-5-0.7-14.4-1.1-20.6-0.3l-55.6,7.2l-4.1,0.5l-86.9,11.3c-6.1,0.8-7.2,2.8-1.7,3.9
	L169,162.7c2.9,0.6,7.1,1.6,11,1.7c3.5,0,6.8-0.8,9.6-1.4l72.8-14.6l9.5-1.7l61.4-11.3C339.1,134.4,340,132.3,334.9,131.6
	L334.9,131.6L334.9,131.6L334.9,131.6z"/>
<path class="st4" d="M231.2,116.6L95.5,147.9l34,6.9L254.6,120L231.2,116.6z"/>
<path class="st5" d="M129.5,154.8c2.1,28.7,5.5,54.3-12,75.3l-29.4-14.6L129.5,154.8z"/>
<path class="st6" d="M95.5,147.9c3.6,20.2,6.3,52-11.9,61.2l34,17.2c21-15,10.9-65.1,12-71.5L95.5,147.9L95.5,147.9L95.5,147.9z"/>
</svg>
