<?xml version="1.0" encoding="iso-8859-1"?>
<!-- Generator: Adobe Illustrator 19.0.0, SVG Export Plug-In . SVG Version: 6.00 Build 0)  -->
<svg version="1.1" id="Layer_1" xmlns="http://www.w3.org/2000/svg" xmlns:xlink="http://www.w3.org/1999/xlink" x="0px" y="0px"
	 viewBox="0 0 512 512" style="enable-background:new 0 0 512 512;" xml:space="preserve">
<g>
	<g>
		<path d="M500.87,77.913c6.146,0,11.13-4.984,11.13-11.13V22.261c0-6.146-4.984-11.13-11.13-11.13H11.13
			C4.984,11.13,0,16.115,0,22.261v44.522c0,6.146,4.984,11.13,11.13,11.13h38.957v44.522H11.13c-6.146,0-11.13,4.984-11.13,11.13
			v89.043c0,6.146,4.984,11.13,11.13,11.13h38.957v44.522H11.13c-6.146,0-11.13,4.984-11.13,11.13v89.043
			c0,6.146,4.984,11.13,11.13,11.13h38.957v44.522H11.13c-6.146,0-11.13,4.984-11.13,11.13v44.522c0,6.146,4.984,11.13,11.13,11.13
			H500.87c6.146,0,11.13-4.984,11.13-11.13v-44.522c0-6.146-4.984-11.13-11.13-11.13h-38.957v-44.522h38.957
			c6.146,0,11.13-4.984,11.13-11.13v-89.043c0-6.146-4.984-11.13-11.13-11.13h-38.957v-44.522h38.957
			c6.146,0,11.13-4.984,11.13-11.13v-89.043c0-6.146-4.984-11.13-11.13-11.13h-38.957V77.913H500.87z M489.739,456.348v22.261
			H22.261v-22.261H489.739z M72.348,434.087v-44.522h33.391v44.522H72.348z M128,434.087v-44.522h89.043v44.522H128z
			 M239.304,434.087v-44.522h33.391v44.522H239.304z M294.957,434.087v-44.522H384v44.522H294.957z M406.261,434.087v-44.522h33.391
			v44.522H406.261z M489.739,367.304H22.261v-22.261h467.478V367.304z M489.739,300.522v22.261H22.261v-22.261H489.739z
			 M72.348,278.261v-44.522h33.391v44.522H72.348z M128,278.261v-44.522h89.043v44.522H128z M239.304,278.261v-44.522h33.391v44.522
			H239.304z M294.957,278.261v-44.522H384v44.522H294.957z M406.261,278.261v-44.522h33.391v44.522H406.261z M489.739,211.478
			H22.261v-22.261h467.478V211.478z M489.739,144.696v22.261H22.261v-22.261H489.739z M72.348,122.435V77.913h33.391v44.522H72.348z
			 M128,122.435V77.913h89.043v44.522H128z M239.304,122.435V77.913h33.391v44.522H239.304z M294.957,122.435V77.913H384v44.522
			H294.957z M406.261,122.435V77.913h33.391v44.522H406.261z M22.261,55.652V33.391h467.478v22.261H22.261z"/>
	</g>
</g>
<g>
</g>
<g>
</g>
<g>
</g>
<g>
</g>
<g>
</g>
<g>
</g>
<g>
</g>
<g>
</g>
<g>
</g>
<g>
</g>
<g>
</g>
<g>
</g>
<g>
</g>
<g>
</g>
<g>
</g>
</svg>
