<?xml version="1.0" encoding="utf-8"?>
<!-- Generator: Adobe Illustrator 21.0.0, SVG Export Plug-In . SVG Version: 6.00 Build 0)  -->
<svg version="1.1" id="Layer_1" xmlns="http://www.w3.org/2000/svg" xmlns:xlink="http://www.w3.org/1999/xlink" x="0px" y="0px"
	 viewBox="0 0 745 460" style="enable-background:new 0 0 745 460;" xml:space="preserve">
<style type="text/css">
	.st0{fill:#90DFAA;}
	.st1{fill:#2C9984;}
	.st2{fill:#2B3B4E;}
	.st3{fill:#FFFFFF;}
	.st4{fill:#E6E9EE;}
	.st5{fill:#FF7058;}
	.st6{fill:#324A5E;}
</style>
<rect class="st0" width="745" height="346.4"/>
<rect y="346.4" class="st1" width="745" height="113.6"/>
<rect x="186.2" y="269.2" class="st2" width="239.6" height="22.4"/>
<path class="st3" d="M394.2,269.2H173.8c-4.8,0-8.8-4-8.8-8.8V130.8c0-4.8,4-8.8,8.8-8.8h220.4c4.8,0,8.8,4,8.8,8.8v129.6
	C403.4,265.2,399.4,269.2,394.2,269.2z"/>
<g>
	<rect x="175" y="131.6" class="st4" width="11.2" height="127.2"/>
	<rect x="195.8" y="131.6" class="st4" width="11.2" height="127.2"/>
	<rect x="216.6" y="131.6" class="st4" width="11.2" height="127.2"/>
	<rect x="237" y="131.6" class="st4" width="11.2" height="127.2"/>
	<rect x="257.8" y="131.6" class="st4" width="11.2" height="127.2"/>
	<rect x="278.6" y="131.6" class="st4" width="11.2" height="127.2"/>
	<rect x="299.4" y="131.6" class="st4" width="11.2" height="127.2"/>
	<rect x="320.2" y="131.6" class="st4" width="11.2" height="127.2"/>
	<rect x="340.6" y="131.6" class="st4" width="11.2" height="127.2"/>
	<rect x="361.4" y="131.6" class="st4" width="11.2" height="127.2"/>
	<rect x="382.2" y="131.6" class="st4" width="11.2" height="127.2"/>
</g>
<path class="st5" d="M555.4,225.6h-8c-6.8,0-12.8-4.4-14.8-10.8l-20-61.6c-1.6-4.8-6-8-11.2-8h-72.8c-6.4,0-12,5.2-12,12v138.4
	c0,6.4,5.2,12,12,12h126.8c6.4,0,12-5.2,12-12v-58C567.4,230.8,561.8,225.6,555.4,225.6z"/>
<g>
	<path class="st3" d="M425.4,163.2V208c0,3.2,2.8,6,6,6h21.2v-56.8h-21.2C428.2,157.2,425.4,159.6,425.4,163.2z"/>
	<path class="st3" d="M495.8,204.4l-8-41.2c-0.8-3.6-4-6.4-8-6.4h-20V214h28C493,214,496.6,209.6,495.8,204.4z"/>
	<path class="st3" d="M532.2,214h-18.8c-2.4,0-4.8-2-4.8-4.4l-6.4-47.2c-0.4-3.2,2-5.6,4.8-5.6h6.4L532.2,214z"/>
</g>
<path class="st2" d="M537.4,306.8h-91.2c1.2-24.4,21.2-43.6,45.6-43.6C516.2,263.2,536.2,282.8,537.4,306.8z"/>
<circle class="st6" cx="491.8" cy="309.2" r="37.2"/>
<circle class="st2" cx="492.2" cy="309.2" r="26"/>
<circle class="st4" cx="492.2" cy="309.2" r="22"/>
<g>
	<path class="st2" d="M498.6,298c0,2.8-3.2,0.8-6.8,0.8s-6.8,2-6.8-0.8s3.2-4.8,6.8-4.8S498.6,295.2,498.6,298z"/>
	<path class="st2" d="M485.4,320.4c0-2.8,3.2-0.8,6.8-0.8s6.8-2,6.8,0.8s-3.2,4.8-6.8,4.8S485.4,322.8,485.4,320.4z"/>
	<path class="st2" d="M503.4,316c-2.8,0-0.8-3.2-0.8-6.8c0-3.6-2-6.8,0.8-6.8s4.8,3.2,4.8,6.8C508.2,312.8,505.8,316,503.4,316z"/>
	<path class="st2" d="M480.6,302.4c2.8,0,0.8,3.2,0.8,6.8c0,3.6,2,6.8-0.8,6.8s-4.8-3.2-4.8-6.8
		C476.2,305.2,478.2,302.4,480.6,302.4z"/>
	<circle class="st2" cx="492.2" cy="309.2" r="5.6"/>
</g>
<circle class="st6" cx="244.2" cy="309.2" r="37.2"/>
<circle class="st2" cx="244.2" cy="309.2" r="26"/>
<circle class="st4" cx="244.2" cy="309.2" r="22"/>
<g>
	<path class="st2" d="M251,298c0,2.8-3.2,0.8-6.8,0.8s-6.8,2-6.8-0.8s3.2-4.8,6.8-4.8S251,295.2,251,298z"/>
	<path class="st2" d="M237.4,320.4c0-2.8,3.2-0.8,6.8-0.8s6.8-2,6.8,0.8s-3.2,4.8-6.8,4.8C240.2,325.2,237.4,322.8,237.4,320.4z"/>
	<path class="st2" d="M255.4,316c-2.8,0-0.8-3.2-0.8-6.8c0-3.6-2-6.8,0.8-6.8c2.8,0,4.8,3.2,4.8,6.8S257.8,316,255.4,316z"/>
	<path class="st2" d="M233,302.4c2.8,0,0.8,3.2,0.8,6.8c0,3.6,2,6.8-0.8,6.8s-4.8-3.2-4.8-6.8C228.2,305.2,230.2,302.4,233,302.4z"
		/>
	<circle class="st2" cx="244.2" cy="309.2" r="5.6"/>
</g>
</svg>
