<?xml version="1.0" encoding="utf-8"?>
<!-- Generator: Adobe Illustrator 21.0.0, SVG Export Plug-In . SVG Version: 6.00 Build 0)  -->
<svg version="1.1" id="Layer_1" xmlns="http://www.w3.org/2000/svg" xmlns:xlink="http://www.w3.org/1999/xlink" x="0px" y="0px"
	 viewBox="0 0 490.7 368" style="enable-background:new 0 0 490.7 368;" xml:space="preserve">
<style type="text/css">
	.st0{fill:#90DFAA;}
	.st1{fill:#2C9984;}
	.st2{fill:#2B3B4E;}
	.st3{fill:#FFFFFF;}
	.st4{fill:#E6E9EE;}
	.st5{fill:#FF7058;}
	.st6{fill:#324A5E;}
</style>
<rect class="st0" width="490.7" height="300.4"/>
<rect y="300.4" class="st1" width="490.7" height="67.6"/>
<rect x="59" y="223.2" class="st2" width="239.6" height="22.4"/>
<path class="st3" d="M267.1,223.2H46.7c-4.8,0-8.8-4-8.8-8.8V84.8c0-4.8,4-8.8,8.8-8.8h220.4c4.8,0,8.8,4,8.8,8.8v129.6
	C276.2,219.2,272.2,223.2,267.1,223.2z"/>
<g>
	<rect x="47.8" y="85.6" class="st4" width="11.2" height="127.2"/>
	<rect x="68.7" y="85.6" class="st4" width="11.2" height="127.2"/>
	<rect x="89.5" y="85.6" class="st4" width="11.2" height="127.2"/>
	<rect x="109.8" y="85.6" class="st4" width="11.2" height="127.2"/>
	<rect x="130.6" y="85.6" class="st4" width="11.2" height="127.2"/>
	<rect x="151.5" y="85.6" class="st4" width="11.2" height="127.2"/>
	<rect x="172.2" y="85.6" class="st4" width="11.2" height="127.2"/>
	<rect x="193.1" y="85.6" class="st4" width="11.2" height="127.2"/>
	<rect x="213.5" y="85.6" class="st4" width="11.2" height="127.2"/>
	<rect x="234.2" y="85.6" class="st4" width="11.2" height="127.2"/>
	<rect x="255.1" y="85.6" class="st4" width="11.2" height="127.2"/>
</g>
<path class="st5" d="M428.3,179.6h-8c-6.8,0-12.8-4.4-14.8-10.8l-20-61.6c-1.6-4.8-6-8-11.2-8h-72.8c-6.4,0-12,5.2-12,12v138.4
	c0,6.4,5.2,12,12,12h126.8c6.4,0,12-5.2,12-12v-58C440.3,184.8,434.6,179.6,428.3,179.6z"/>
<g>
	<path class="st3" d="M298.2,117.2V162c0,3.2,2.8,6,6,6h21.2v-56.8h-21.2C301.1,111.2,298.2,113.6,298.2,117.2z"/>
	<path class="st3" d="M368.6,158.4l-8-41.2c-0.8-3.6-4-6.4-8-6.4h-20V168h28C365.9,168,369.5,163.6,368.6,158.4z"/>
	<path class="st3" d="M405.1,168h-18.8c-2.4,0-4.8-2-4.8-4.4l-6.4-47.2c-0.4-3.2,2-5.6,4.8-5.6h6.4L405.1,168z"/>
</g>
<path class="st2" d="M410.3,260.8h-91.2c1.2-24.4,21.2-43.6,45.6-43.6C389.1,217.2,409.1,236.8,410.3,260.8z"/>
<circle class="st6" cx="364.6" cy="263.2" r="37.2"/>
<circle class="st2" cx="365.1" cy="263.2" r="26"/>
<circle class="st4" cx="365.1" cy="263.2" r="22"/>
<g>
	<path class="st2" d="M371.5,252c0,2.8-3.2,0.8-6.8,0.8s-6.8,2-6.8-0.8s3.2-4.8,6.8-4.8S371.5,249.2,371.5,252z"/>
	<path class="st2" d="M358.2,274.4c0-2.8,3.2-0.8,6.8-0.8s6.8-2,6.8,0.8s-3.2,4.8-6.8,4.8S358.2,276.8,358.2,274.4z"/>
	<path class="st2" d="M376.2,270c-2.8,0-0.8-3.2-0.8-6.8c0-3.6-2-6.8,0.8-6.8s4.8,3.2,4.8,6.8C381.1,266.8,378.6,270,376.2,270z"/>
	<path class="st2" d="M353.5,256.4c2.8,0,0.8,3.2,0.8,6.8c0,3.6,2,6.8-0.8,6.8s-4.8-3.2-4.8-6.8
		C349.1,259.2,351.1,256.4,353.5,256.4z"/>
	<circle class="st2" cx="365.1" cy="263.2" r="5.6"/>
</g>
<circle class="st6" cx="117" cy="263.2" r="37.2"/>
<circle class="st2" cx="117.1" cy="263.2" r="26"/>
<circle class="st4" cx="117.1" cy="263.2" r="22"/>
<g>
	<path class="st2" d="M123.8,252c0,2.8-3.2,0.8-6.8,0.8s-6.8,2-6.8-0.8s3.2-4.8,6.8-4.8S123.8,249.2,123.8,252z"/>
	<path class="st2" d="M110.2,274.4c0-2.8,3.2-0.8,6.8-0.8s6.8-2,6.8,0.8s-3.2,4.8-6.8,4.8C113,279.2,110.2,276.8,110.2,274.4z"/>
	<path class="st2" d="M128.2,270c-2.8,0-0.8-3.2-0.8-6.8c0-3.6-2-6.8,0.8-6.8c2.8,0,4.8,3.2,4.8,6.8S130.6,270,128.2,270z"/>
	<path class="st2" d="M105.8,256.4c2.8,0,0.8,3.2,0.8,6.8c0,3.6,2,6.8-0.8,6.8s-4.8-3.2-4.8-6.8C101,259.2,103,256.4,105.8,256.4z"
		/>
	<circle class="st2" cx="117" cy="263.2" r="5.6"/>
</g>
</svg>
