<?xml version="1.0" encoding="utf-8"?>
<!-- Generator: Adobe Illustrator 21.0.0, SVG Export Plug-In . SVG Version: 6.00 Build 0)  -->
<svg version="1.1" id="Layer_1" xmlns="http://www.w3.org/2000/svg" xmlns:xlink="http://www.w3.org/1999/xlink" x="0px" y="0px"
	 viewBox="0 0 368 490.7" style="enable-background:new 0 0 368 490.7;" xml:space="preserve">
<style type="text/css">
	.st0{fill:#90DFAA;}
	.st1{fill:#2C9984;}
	.st2{fill:#2B3B4E;}
	.st3{fill:#FFFFFF;}
	.st4{fill:#E6E9EE;}
	.st5{fill:#FF7058;}
	.st6{fill:#324A5E;}
</style>
<rect class="st0" width="368" height="361.7"/>
<rect y="361.8" class="st1" width="368" height="129"/>
<rect x="30.5" y="295.9" class="st2" width="204.4" height="19.1"/>
<path class="st3" d="M207.9,295.9h-188c-4.1,0-7.5-3.4-7.5-7.5V177.9c0-4.1,3.4-7.5,7.5-7.5h188c4.1,0,7.5,3.4,7.5,7.5v110.5
	C215.7,292.5,212.3,295.9,207.9,295.9z"/>
<g>
	<rect x="20.9" y="178.6" class="st4" width="9.6" height="108.5"/>
	<rect x="38.7" y="178.6" class="st4" width="9.6" height="108.5"/>
	<rect x="56.4" y="178.6" class="st4" width="9.6" height="108.5"/>
	<rect x="73.8" y="178.6" class="st4" width="9.6" height="108.5"/>
	<rect x="91.5" y="178.6" class="st4" width="9.6" height="108.5"/>
	<rect x="109.3" y="178.6" class="st4" width="9.6" height="108.5"/>
	<rect x="127" y="178.6" class="st4" width="9.6" height="108.5"/>
	<rect x="144.8" y="178.6" class="st4" width="9.6" height="108.5"/>
	<rect x="162.2" y="178.6" class="st4" width="9.6" height="108.5"/>
	<rect x="179.9" y="178.6" class="st4" width="9.6" height="108.5"/>
	<rect x="197.6" y="178.6" class="st4" width="9.6" height="108.5"/>
</g>
<path class="st5" d="M345.4,258.7h-6.8c-5.8,0-10.9-3.8-12.6-9.2L308.9,197c-1.4-4.1-5.1-6.8-9.6-6.8h-62.1
	c-5.5,0-10.2,4.4-10.2,10.2v118c0,5.5,4.4,10.2,10.2,10.2h108.1c5.5,0,10.2-4.4,10.2-10.2V269C355.6,263.2,350.8,258.7,345.4,258.7z
	"/>
<g>
	<path class="st3" d="M234.5,205.5v38.2c0,2.7,2.4,5.1,5.1,5.1h18.1v-48.4h-18.1C236.9,200.4,234.5,202.4,234.5,205.5z"/>
	<path class="st3" d="M294.5,240.6l-6.8-35.1c-0.7-3.1-3.4-5.5-6.8-5.5h-17.1v48.8h23.9C292.1,248.8,295.2,245.1,294.5,240.6z"/>
	<path class="st3" d="M325.6,248.8h-16c-2,0-4.1-1.7-4.1-3.8l-5.5-40.3c-0.3-2.7,1.7-4.8,4.1-4.8h5.5L325.6,248.8z"/>
</g>
<path class="st2" d="M330,328h-77.8c1-20.8,18.1-37.2,38.9-37.2C311.9,290.8,329,307.5,330,328z"/>
<circle class="st6" cx="291.1" cy="330" r="31.7"/>
<circle class="st2" cx="291.5" cy="330" r="22.2"/>
<circle class="st4" cx="291.5" cy="330" r="18.8"/>
<g>
	<path class="st2" d="M296.9,320.5c0,2.4-2.7,0.7-5.8,0.7c-3.1,0-5.8,1.7-5.8-0.7s2.7-4.1,5.8-4.1
		C294.2,316.4,296.9,318.1,296.9,320.5z"/>
	<path class="st2" d="M285.7,339.6c0-2.4,2.7-0.7,5.8-0.7c3.1,0,5.8-1.7,5.8,0.7s-2.7,4.1-5.8,4.1
		C288.4,343.7,285.7,341.6,285.7,339.6z"/>
	<path class="st2" d="M301,335.8c-2.4,0-0.7-2.7-0.7-5.8s-1.7-5.8,0.7-5.8s4.1,2.7,4.1,5.8C305.1,333.1,303.1,335.8,301,335.8z"/>
	<path class="st2" d="M281.6,324.2c2.4,0,0.7,2.7,0.7,5.8s1.7,5.8-0.7,5.8s-4.1-2.7-4.1-5.8C277.8,326.6,279.5,324.2,281.6,324.2z"
		/>
	<circle class="st2" cx="291.5" cy="330" r="4.8"/>
</g>
<circle class="st6" cx="79.9" cy="330" r="31.7"/>
<circle class="st2" cx="79.9" cy="330" r="22.2"/>
<circle class="st4" cx="79.9" cy="330" r="18.8"/>
<g>
	<path class="st2" d="M85.7,320.5c0,2.4-2.7,0.7-5.8,0.7s-5.8,1.7-5.8-0.7s2.7-4.1,5.8-4.1S85.7,318.1,85.7,320.5z"/>
	<path class="st2" d="M74.1,339.6c0-2.4,2.7-0.7,5.8-0.7s5.8-1.7,5.8,0.7s-2.7,4.1-5.8,4.1C76.5,343.7,74.1,341.6,74.1,339.6z"/>
	<path class="st2" d="M89.5,335.8c-2.4,0-0.7-2.7-0.7-5.8s-1.7-5.8,0.7-5.8c2.4,0,4.1,2.7,4.1,5.8C93.6,333.1,91.5,335.8,89.5,335.8
		z"/>
	<path class="st2" d="M70.4,324.2c2.4,0,0.7,2.7,0.7,5.8s1.7,5.8-0.7,5.8s-4.1-2.7-4.1-5.8C66.3,326.6,68,324.2,70.4,324.2z"/>
	<circle class="st2" cx="79.9" cy="330" r="4.8"/>
</g>
</svg>
