<?xml version="1.0" encoding="iso-8859-1"?>
<!-- Generator: Adobe Illustrator 19.0.0, SVG Export Plug-In . SVG Version: 6.00 Build 0)  -->
<svg version="1.1" id="Layer_1" xmlns="http://www.w3.org/2000/svg" xmlns:xlink="http://www.w3.org/1999/xlink" x="0px" y="0px"
	 viewBox="0 0 512 512" style="enable-background:new 0 0 512 512;" xml:space="preserve">
<g>
	<g>
		<path d="M511.619,304.516l-31.671-97.123c-1.062-3.258-4.1-5.463-7.527-5.463h-27.448c-21.83,0-39.588,17.759-39.588,39.588
			v15.423l-38.445,38.445l-63.927-63.927c-0.01-0.009-0.021-0.018-0.031-0.027v-66.219c0-4.373-3.545-7.918-7.918-7.918
			c-4.373,0-7.918,3.545-7.918,7.918v203.517h-16.401c-3.863-27.406-27.458-48.562-55.914-48.562s-52.05,21.156-55.914,48.562
			h-14.857c-3.863-27.406-27.458-48.562-55.914-48.562c-28.455,0-52.05,21.156-55.914,48.562H15.835v-9.27
			c0-4.373-3.545-7.918-7.918-7.918S0,355.086,0,359.458v17.188c0,4.373,3.545,7.918,7.918,7.918h24.319
			c3.863,27.406,27.458,48.562,55.914,48.562s52.05-21.156,55.914-48.562h14.857c3.863,27.406,27.458,48.562,55.914,48.562
			s52.05-21.156,55.914-48.562h24.318c4.373,0,7.918-3.545,7.918-7.918v-63.105l46.949,46.95c9.156,9.156,24.436,9.157,33.592,0
			l48.285-47.862c4.121,1.458,8.55,2.259,13.164,2.259h59.119C509.381,314.888,513.262,309.554,511.619,304.516z M88.15,417.29
			c-22.411,0-40.644-18.233-40.644-40.644s18.233-40.644,40.644-40.644s40.644,18.233,40.644,40.644S110.561,417.29,88.15,417.29z
			 M214.833,417.29c-22.411,0-40.644-18.233-40.644-40.644s18.233-40.644,40.644-40.644c22.411,0,40.644,18.233,40.644,40.644
			S237.244,417.29,214.833,417.29z M372.327,349.293c-3.051,3.051-8.146,3.051-11.197,0c0,0-57.461-57.286-58.146-57.648v-37.823
			l82.407,82.407L372.327,349.293z M396.799,325.244l-18.663-18.662l27.437-27.437c0.951,9.821,5.509,18.598,12.325,25
			L396.799,325.244z M444.973,299.053c-13.098,0-23.753-10.655-23.753-23.753v-33.782c0-13.098,10.655-23.753,23.753-23.753h21.702
			l26.506,81.288H444.973z"/>
	</g>
</g>
<g>
	<g>
		<path d="M366.852,326.501h-5.278c-4.373,0-7.918,3.545-7.918,7.918s3.545,7.918,7.918,7.918h5.278
			c4.373,0,7.918-3.545,7.918-7.918S371.225,326.501,366.852,326.501z"/>
	</g>
</g>
<g>
	<g>
		<path d="M279.23,78.875h-96.068c-21.83,0-39.588,17.759-39.588,39.588v119.359h-36.949v-45.395h4.751
			c4.373,0,7.918-3.545,7.918-7.918v-27.448c0-4.373-3.545-7.918-7.918-7.918h-46.45c-4.373,0-7.918,3.545-7.918,7.918v27.448
			c0,4.373,3.545,7.918,7.918,7.918h4.751v45.395H39.588C17.759,237.823,0,255.581,0,277.411v39.82c0,4.373,3.545,7.918,7.918,7.918
			s7.918-3.545,7.918-7.918v-39.82c0-13.098,10.655-23.753,23.753-23.753h111.903c4.373,0,7.918-3.545,7.918-7.918V118.463
			c0-13.098,10.655-23.753,23.753-23.753h96.068c4.366,0,7.918,3.551,7.918,7.918v20.355c0,4.373,3.545,7.918,7.918,7.918
			c4.373,0,7.918-3.545,7.918-7.918v-20.355C302.983,89.53,292.328,78.875,279.23,78.875z M90.789,237.823h-5.278v-45.395h5.278
			V237.823z M103.458,176.593H72.843V164.98h30.615V176.593z"/>
	</g>
</g>
<g>
	<g>
		<path d="M269.729,102.694h-77.065c-13.098,0-23.753,10.655-23.753,23.753V245.74c0,4.373,3.545,7.918,7.918,7.918h92.901
			c4.373,0,7.918-3.545,7.918-7.918V110.612C277.646,106.239,274.101,102.694,269.729,102.694z M261.811,237.823h-77.065V126.447
			c0-4.366,3.551-7.918,7.918-7.918h69.148V237.823z"/>
	</g>
</g>
<g>
	<g>
		<path d="M88.15,345.503c-17.172,0-31.143,13.971-31.143,31.143s13.971,31.143,31.143,31.143c17.172,0,31.143-13.971,31.143-31.143
			S105.322,345.503,88.15,345.503z M88.15,391.953c-8.44,0-15.307-6.867-15.307-15.307s6.867-15.307,15.307-15.307
			s15.307,6.867,15.307,15.307S96.59,391.953,88.15,391.953z"/>
	</g>
</g>
<g>
	<g>
		<path d="M214.833,345.503c-17.172,0-31.143,13.971-31.143,31.143s13.971,31.143,31.143,31.143
			c17.172,0,31.143-13.971,31.143-31.143S232.005,345.503,214.833,345.503z M214.833,391.953c-8.44,0-15.307-6.867-15.307-15.307
			s6.867-15.307,15.307-15.307c8.44,0,15.308,6.867,15.308,15.307S223.273,391.953,214.833,391.953z"/>
	</g>
</g>
<g>
	<g>
		<path d="M200.053,261.048h-23.225c-4.373,0-7.918,3.545-7.918,7.918s3.545,7.918,7.918,7.918h23.225
			c4.373,0,7.918-3.545,7.918-7.918S204.426,261.048,200.053,261.048z"/>
	</g>
</g>
<g>
	<g>
		<path d="M267.617,288.496H109.264c-4.373,0-7.918,3.545-7.918,7.918s3.545,7.918,7.918,7.918h158.353
			c4.373,0,7.918-3.545,7.918-7.918S271.99,288.496,267.617,288.496z"/>
	</g>
</g>
<g>
	<g>
		<path d="M75.482,288.496H31.143c-4.373,0-7.918,3.545-7.918,7.918s3.545,7.918,7.918,7.918h44.339
			c4.373,0,7.918-3.545,7.918-7.918S79.854,288.496,75.482,288.496z"/>
	</g>
</g>
<g>
</g>
<g>
</g>
<g>
</g>
<g>
</g>
<g>
</g>
<g>
</g>
<g>
</g>
<g>
</g>
<g>
</g>
<g>
</g>
<g>
</g>
<g>
</g>
<g>
</g>
<g>
</g>
<g>
</g>
</svg>
