<?xml version="1.0" encoding="iso-8859-1"?>
<!-- Generator: Adobe Illustrator 19.0.0, SVG Export Plug-In . SVG Version: 6.00 Build 0)  -->
<svg version="1.1" id="Layer_1" xmlns="http://www.w3.org/2000/svg" xmlns:xlink="http://www.w3.org/1999/xlink" x="0px" y="0px"
	 viewBox="0 0 512.001 512.001" style="enable-background:new 0 0 512.001 512.001;" xml:space="preserve">
<g>
	<g>
		<path d="M492.428,35.809l-22.203-22.203c-18.14-18.142-47.661-18.142-65.8,0L388.21,29.822c-0.91-0.024-1.815-0.069-2.731-0.069
			H108.706c-56.65,0-102.738,46.089-102.738,102.738v276.773c0,56.65,46.089,102.737,102.738,102.737h276.773
			c56.65,0,102.737-46.087,102.737-102.737V132.491c0-8.21-0.995-16.186-2.824-23.844l7.036-7.036
			C510.568,83.468,510.568,53.951,492.428,35.809z M451.799,409.264L451.799,409.264c0,36.569-29.751,66.32-66.32,66.32H108.706
			c-36.569,0-66.321-29.751-66.321-66.32V132.491c0-36.569,29.752-66.321,66.321-66.321h243.156L164.907,253.125
			c-2.353,2.353-4.016,5.302-4.808,8.533l-20.264,82.517c-1.519,6.185,0.305,12.715,4.808,17.218
			c3.456,3.457,8.105,5.334,12.876,5.334c1.445,0,2.904-0.172,4.341-0.526l82.517-20.264c3.23-0.793,6.181-2.456,8.533-4.808
			l198.889-198.887V409.264z M192.375,282.926l30.733,30.733l-40.738,10.004L192.375,282.926z M466.676,75.86L251.743,290.793
			l-36.501-36.501L430.175,39.357c3.943-3.943,10.356-3.943,14.299,0l22.201,22.203C470.618,65.503,470.618,71.917,466.676,75.86z"
			/>
	</g>
</g>
<g>
</g>
<g>
</g>
<g>
</g>
<g>
</g>
<g>
</g>
<g>
</g>
<g>
</g>
<g>
</g>
<g>
</g>
<g>
</g>
<g>
</g>
<g>
</g>
<g>
</g>
<g>
</g>
<g>
</g>
</svg>
