<?xml version="1.0" encoding="utf-8"?>
<!-- Generator: Adobe Illustrator 21.0.0, SVG Export Plug-In . SVG Version: 6.00 Build 0)  -->
<svg version="1.1" id="Calque_1" xmlns="http://www.w3.org/2000/svg" xmlns:xlink="http://www.w3.org/1999/xlink" x="0px" y="0px"
	 viewBox="0 0 79.7 77.7" style="enable-background:new 0 0 79.7 77.7;" xml:space="preserve">
<path d="M65.2,15H26.1L15.7,31.7V75h60V31.7L65.2,15z M72.9,31H46.7V17h17.4L72.9,31z M27.2,17h17.4v14H18.5L27.2,17z M17.7,73V33
	h56v40H17.7z"/>
<path d="M51.7,38h-12c-1.7,0-3,1.3-3,3s1.3,3,3,3h12c1.7,0,3-1.3,3-3S53.3,38,51.7,38z M51.7,42h-12c-0.6,0-1-0.4-1-1s0.4-1,1-1h12
	c0.6,0,1,0.4,1,1S52.2,42,51.7,42z"/>
<path d="M53.7,67h-16c-0.6,0-1,0.4-1,1s0.4,1,1,1h16c0.6,0,1-0.4,1-1S54.2,67,53.7,67z"/>
<path d="M40.7,65c0.6,0,1-0.4,1-1v-6.6l1.3,1.3c0.2,0.2,0.5,0.3,0.7,0.3s0.5-0.1,0.7-0.3c0.4-0.4,0.4-1,0-1.4l-3-3
	c-0.1-0.1-0.2-0.2-0.3-0.2c-0.2-0.1-0.5-0.1-0.8,0c-0.1,0.1-0.2,0.1-0.3,0.2l-3,3c-0.4,0.4-0.4,1,0,1.4c0.2,0.2,0.5,0.3,0.7,0.3
	s0.5-0.1,0.7-0.3l1.3-1.3V64C39.7,64.6,40.1,65,40.7,65z"/>
<path d="M51.4,54.3c-0.1-0.1-0.2-0.2-0.3-0.2c-0.2-0.1-0.5-0.1-0.8,0c-0.1,0.1-0.2,0.1-0.3,0.2l-3,3c-0.4,0.4-0.4,1,0,1.4
	c0.2,0.2,0.5,0.3,0.7,0.3s0.5-0.1,0.7-0.3l1.3-1.3V64c0,0.6,0.4,1,1,1s1-0.4,1-1v-6.6l1.3,1.3c0.2,0.2,0.5,0.3,0.7,0.3
	s0.5-0.1,0.7-0.3c0.4-0.4,0.4-1,0-1.4L51.4,54.3z"/>
<path d="M5.7,62c0.6,0,1-0.4,1-1V35.4L8,36.7C8.2,36.9,8.4,37,8.7,37s0.5-0.1,0.7-0.3c0.4-0.4,0.4-1,0-1.4l-3-3
	c-0.1-0.1-0.2-0.2-0.3-0.2c-0.2-0.1-0.5-0.1-0.8,0c-0.1,0.1-0.2,0.1-0.3,0.2l-3,3c-0.4,0.4-0.4,1,0,1.4C2.2,36.9,2.4,37,2.7,37
	s0.5-0.1,0.7-0.3l1.3-1.3V61C4.7,61.6,5.1,62,5.7,62z"/>
<path d="M5.7,45c-0.6,0-1,0.4-1,1v25.6l-1.3-1.3C3.2,70.1,2.9,70,2.7,70S2.2,70.1,2,70.3c-0.4,0.4-0.4,1,0,1.4l3,3
	c0.1,0.1,0.2,0.2,0.3,0.2C5.5,75,5.8,75,6,74.9c0.1-0.1,0.2-0.1,0.3-0.2l3-3c0.4-0.4,0.4-1,0-1.4C9.2,70.1,8.9,70,8.7,70
	S8.2,70.1,8,70.3l-1.3,1.3V46C6.7,45.4,6.2,45,5.7,45z"/>
</svg>
