<?xml version="1.0" encoding="utf-8"?>
<!-- Generator: Adobe Illustrator 21.0.0, SVG Export Plug-In . SVG Version: 6.00 Build 0)  -->
<svg version="1.1" id="Calque_1" xmlns="http://www.w3.org/2000/svg" xmlns:xlink="http://www.w3.org/1999/xlink" x="0px" y="0px"
	 viewBox="0 0 1800 600" style="enable-background:new 0 0 1800 600;" xml:space="preserve">
<style type="text/css">
	.st0{display:none;}
	.st1{display:inline;fill:#FF0000;stroke:#000000;stroke-miterlimit:10;}
	.st2{display:inline;fill:none;stroke:#000000;stroke-miterlimit:10;}
	.st3{display:inline;fill:#441400;stroke:#000000;stroke-miterlimit:10;}
	.st4{display:inline;stroke:#000000;stroke-miterlimit:10;}
	.st5{display:inline;fill:#F7931E;stroke:#000000;stroke-miterlimit:10;}
	.st6{display:inline;fill:#FFFFFF;stroke:#000000;stroke-miterlimit:10;}
	.st7{display:inline;fill:#6565BF;stroke:#000000;stroke-miterlimit:10;}
	.st8{display:inline;fill:#0000FF;stroke:#000000;stroke-miterlimit:10;}
	.st9{display:inline;fill:#FF00FF;stroke:#000000;stroke-miterlimit:10;}
	.st10{fill:#00FF00;stroke:#000000;stroke-miterlimit:10;}
	.st11{fill:none;stroke:#000000;stroke-miterlimit:10;}
	.st12{fill:#D9E021;stroke:#000000;stroke-miterlimit:10;}
</style>
<g id="Tracteur" class="st0">
	<polygon class="st1" points="240,500 240,480 270,450 310,450 340,480 340,500 460,500 460,480 490,450 530,450 560,480 560,500 
		570,500 570,480 600,450 640,450 670,480 670,500 690,500 690,430 370,430 370,160 220,160 130,190 100,320 100,500 	"/>
	<path class="st2" d="M220.2,171.3"/>
	<polygon class="st3" points="112,320 140,198 220,198 220,320 	"/>
	<rect x="200" y="330" class="st4" width="20" height="10"/>
	<polygon class="st5" points="690,500 790,400 790,330 471,330 470,60 320,60 230,90 130,190 220,160 370,160 370,430 690,430 	"/>
	<line class="st2" x1="220" y1="160" x2="320" y2="60"/>
	<line class="st2" x1="370" y1="160" x2="471" y2="60"/>
	<path class="st2" d="M370,430"/>
	<line class="st2" x1="471" y1="330" x2="370" y2="430"/>
	<line class="st2" x1="790" y1="330" x2="690" y2="430"/>
</g>
<g id="Remorque_interieur" class="st0">
	<polygon class="st6" points="411,405 511,305 511,70 411,170 	"/>
	<rect x="511" y="70" class="st6" width="1200" height="235"/>
	<line class="st2" x1="1611" y1="170" x2="1711" y2="70"/>
	<path class="st2" d="M1611,405l100-100L1611,405z"/>
	<path class="st2" d="M511,305L411,405L511,305z"/>
	<path class="st2" d="M411,405"/>
	<polygon class="st6" points="411,405 1611,405 1711,305 511,305 	"/>
	<rect x="411" y="170" class="st2" width="1200" height="235"/>
</g>
<g id="Box" class="st0">
	<rect x="411" y="345" class="st7" width="80" height="60"/>
	<polyline class="st8" points="491,405 591,305 591,245 491,345 491,405 	"/>
	<polyline class="st9" points="411,345 491,345 591,245 511,245 411,345 	"/>
</g>
<g id="Remorque">
	<path class="st10" d="M400,160v260l300.5,1l0.7-0.5l0.3,80h499V421v-0.5v0.5h19.5v-0.5l0.5,0.5h-0.5v79.5h10v-20l30-30h40l30,30v20
		h10v-20l30-30h40l30,30v20h10v-20l30-30h40l30,30v20h20l0.5-80l0.5,0.5l49-1V160H400z M1611,405H411V170h1200V405z"/>
	<rect x="411" y="170" class="st11" width="1200" height="235"/>
	<polygon class="st12" points="500,60 400,160 1620,160 1620,420 1720,320 1720,60 	"/>
	<line class="st11" x1="1720" y1="60" x2="1619.5" y2="160.5"/>
	<polygon class="st12" points="1620,420 1570,420 1570,501 1670,401 1670,370 	"/>
</g>
<g id="Brouillon" class="st0">
</g>
<g id="Roues" class="st0">
	<circle class="st4" cx="1501" cy="500" r="40"/>
	<circle class="st4" cx="1391" cy="500" r="40"/>
	<circle class="st4" cx="1281" cy="500" r="40"/>
	<circle class="st4" cx="621" cy="500" r="40"/>
	<circle class="st4" cx="511" cy="500" r="40"/>
	<circle class="st4" cx="291" cy="500" r="40"/>
</g>
</svg>
