<?xml version="1.0" encoding="UTF-8" standalone="no"?>
<!-- Created with Inkscape (http://www.inkscape.org/) -->

<svg
   xmlns:osb="http://www.openswatchbook.org/uri/2009/osb"
   xmlns:dc="http://purl.org/dc/elements/1.1/"
   xmlns:cc="http://creativecommons.org/ns#"
   xmlns:rdf="http://www.w3.org/1999/02/22-rdf-syntax-ns#"
   xmlns:svg="http://www.w3.org/2000/svg"
   xmlns="http://www.w3.org/2000/svg"
   xmlns:sodipodi="http://sodipodi.sourceforge.net/DTD/sodipodi-0.dtd"
   xmlns:inkscape="http://www.inkscape.org/namespaces/inkscape"
   width="1570"
   height="479"
   viewBox="0 0 1570 479"
   id="svg2"
   version="1.1"
   inkscape:version="0.91 r13725"
   sodipodi:docname="camion.svg">
  <defs
     id="defs4">
    <linearGradient
       id="linearGradient5752"
       osb:paint="solid">
      <stop
         style="stop-color:#000000;stop-opacity:1;"
         offset="0"
         id="stop5754">
    </linearGradient>
  </defs>
  <sodipodi:namedview
     id="base"
     pagecolor="#ffffff"
     bordercolor="#666666"
     borderopacity="1.0"
     inkscape:pageopacity="0.0"
     inkscape:pageshadow="2"
     inkscape:zoom="0.354"
     inkscape:cx="1.12e+003"
     inkscape:cy="379"
     inkscape:document-units="px"
     inkscape:current-layer="layer1"
     showgrid="false"
     units="px"
     showborder="false"
     inkscape:window-width="1280"
     inkscape:window-height="961"
     inkscape:window-x="-8"
     inkscape:window-y="-8"
     inkscape:window-maximized="1"
     fit-margin-top="10"
     fit-margin-left="10"
     fit-margin-right="10"
     fit-margin-bottom="10"
     objecttolerance="10000"
     inkscape:snap-path-clip="true"
     gridtolerance="10000"
     guidetolerance="10000"
     inkscape:snap-perpendicular="true"
     inkscape:snap-tangential="true"
     showguides="true">
    <inkscape:grid
       type="xygrid"
       id="grid3336"
       visible="true"
       snapvisiblegridlinesonly="true"
       originx="1461"
       originy="123"
       enabled="true">
  </sodipodi:namedview>
  <metadata
     id="metadata7">
    <rdf:RDF>
      <cc:Work
         rdf:about="">
        <dc:format>image/svg+xml</dc:format>
        <dc:type
           rdf:resource="http://purl.org/dc/dcmitype/StillImage">
        <dc:title>
      </cc:Work>
    </rdf:RDF>
  </metadata>
  <g
     inkscape:groupmode="layer"
     id="layer5"
     inkscape:label="cabine-perspective"
     style="display:inline">
    <path
       inkscape:connector-curvature="0"
       id="path6271"
       d="m 318,9.01 -80,0.99 -81,19 -49,130 1,168 69,0 -1,-20 33,-30 39,1 31,30 -2,19 90,0 0,-21 31,-29 42,-1 27,29 31,-28 40,0 31,31 0,8 10,0 -2,-49 -259,-1 z"
       style="display:inline;fill:#808000;fill-opacity:1;fill-rule:evenodd;stroke:#f70000;stroke-width:1px;stroke-linecap:butt;stroke-linejoin:miter;stroke-opacity:1">
    <path
       style="fill:#ff9955;fill-opacity:1;fill-rule:evenodd;stroke:none;stroke-width:1px;stroke-linecap:butt;stroke-linejoin:miter;stroke-opacity:1"
       d="M 56.6,125 156,30.7 235,9.48 320,8.07 320,265 l 260,3 -2,47 -97,99 0,-50 -262,3 -3,-259 -75,3 z"
       id="path6311"
       inkscape:connector-curvature="0">
  </g>
  <g
     inkscape:groupmode="layer"
     id="layer6"
     inkscape:label="cabine-perspective-trait"
     style="display:inline">
    <path
       style="display:inline;fill:none;fill-rule:evenodd;stroke:#000000;stroke-width:0.986px;stroke-linecap:butt;stroke-linejoin:miter;stroke-opacity:1"
       d="M 236,10.9 137,108"
       id="path6274"
       inkscape:connector-curvature="0">
    <path
       inkscape:connector-curvature="0"
       id="path6294"
       d="M 316,10.9 217,108"
       style="display:inline;fill:none;fill-rule:evenodd;stroke:#000000;stroke-width:0.986px;stroke-linecap:butt;stroke-linejoin:miter;stroke-opacity:1">
    <path
       style="display:inline;fill:none;fill-rule:evenodd;stroke:#000000;stroke-width:0.986px;stroke-linecap:butt;stroke-linejoin:miter;stroke-opacity:1"
       d="m 318,267 -99,97"
       id="path6296"
       inkscape:connector-curvature="0">
    <path
       inkscape:connector-curvature="0"
       id="path6298"
       d="m 582,267 -99,97"
       style="display:inline;fill:none;fill-rule:evenodd;stroke:#000000;stroke-width:0.986px;stroke-linecap:butt;stroke-linejoin:miter;stroke-opacity:1">
    <path
       style="display:inline;fill:none;fill-rule:evenodd;stroke:#000000;stroke-width:0.986px;stroke-linecap:butt;stroke-linejoin:miter;stroke-opacity:1"
       d="m 582,315 -99,97"
       id="path6300"
       inkscape:connector-curvature="0">
    <path
       inkscape:connector-curvature="0"
       id="path6302"
       d="M 160,28.9 61,126"
       style="display:inline;fill:none;fill-rule:evenodd;stroke:#000000;stroke-width:0.986px;stroke-linecap:butt;stroke-linejoin:miter;stroke-opacity:1">
  </g>
  <g
     inkscape:groupmode="layer"
     id="layer3"
     inkscape:label="cabine"
     style="display:inline">
    <path
       style="fill:#ff0000;fill-opacity:1;fill-rule:evenodd;stroke:#000000;stroke-width:1px;stroke-linecap:butt;stroke-linejoin:miter;stroke-opacity:1"
       d="m 220,108 -80,1 -80.6,19 -48.8,130 0.7,168 69.3,0 -0.7,-20 32.1,-30 39,1 31,30 -2,19 90,0 0,-21 31,-29 42,-1 27,29 31,-28 40,0 31,31 0,8 10,0 -2,-49 -259,-1 z"
       id="path6170"
       inkscape:connector-curvature="0">
  </g>
  <g
     inkscape:groupmode="layer"
     id="layer8"
     inkscape:label="remorque-perspective"
     style="display:inline">
    <path
       style="fill:#ffaaaa;fill-opacity:1;fill-rule:evenodd;stroke:#000000;stroke-width:1px;stroke-linecap:butt;stroke-linejoin:miter;stroke-opacity:1"
       d="m 240,108 99,-97.5 1221,0.5 0,247 -60,59 0,11 -100,98 0,-70 60,0 0,-247 -1221,0"
       id="path6329"
       inkscape:connector-curvature="0"
       sodipodi:nodetypes="ccccccccccc">
  </g>
  <g
     inkscape:groupmode="layer"
     id="layer9"
     inkscape:label="remorque-perspective-trait"
     style="display:inline">
    <path
       style="fill:none;fill-rule:evenodd;stroke:#000000;stroke-width:1px;stroke-linecap:butt;stroke-linejoin:miter;stroke-opacity:1"
       d="M 1460,108 1560,10.2"
       id="path6318"
       inkscape:connector-curvature="0">
    <path
       style="fill:none;fill-rule:evenodd;stroke:#000000;stroke-width:1px;stroke-linecap:butt;stroke-linejoin:miter;stroke-opacity:1"
       d="m 1460,355 100,-98"
       id="path6320"
       inkscape:connector-curvature="0">
    <path
       style="fill:none;fill-rule:evenodd;stroke:#000000;stroke-width:1px;stroke-linecap:butt;stroke-linejoin:miter;stroke-opacity:1"
       d="m 1400,426 100,-99"
       id="path6322"
       inkscape:connector-curvature="0">
    <path
       style="fill:none;fill-rule:evenodd;stroke:#000000;stroke-width:1px;stroke-linecap:butt;stroke-linejoin:miter;stroke-opacity:1"
       d="M 239,109 340,10"
       id="path6324"
       inkscape:connector-curvature="0">
  </g>
  <g
     inkscape:groupmode="layer"
     id="layer7"
     inkscape:label="remorque"
     style="display:inline">
    <path
       style="fill:#ffd5d5;fill-opacity:1;fill-rule:evenodd;stroke:#000000;stroke-width:1px;stroke-linecap:butt;stroke-linejoin:miter;stroke-opacity:1"
       d="m 240,109 1,245 499,1 2,11 -214,-1 2,10 209,0 1,32 -210,-2 0,10 441,1 -1,-10 -209,0 0,-30 209,0 1,-10 -211,-1 0,-10 260,1 0,70 30,1 0,-21 30,-30 40,0 30,29 0,20 20,1 0,-21 30,-29 40,1 30,29 0,20 20,0 0,-21 30,-30 40,2 30,29 0,20 10,0 0,-70 60,0 0,-247 z"
       id="path6314"
       inkscape:connector-curvature="0">
  </g>
  <g
     inkscape:groupmode="layer"
     id="layer4"
     inkscape:label="roues"
     style="display:inline">
    <circle
       style="display:inline;fill:#000000;fill-opacity:1;stroke:#000000;stroke-width:1;stroke-miterlimit:4;stroke-dasharray:none;stroke-dashoffset:0;stroke-opacity:1"
       id="path6181"
       cx="1342"
       cy="426"
       r="39.6">
    <circle
       style="display:inline;fill:#000000;fill-opacity:1;stroke:#000000;stroke-width:1;stroke-miterlimit:4;stroke-dasharray:none;stroke-dashoffset:0;stroke-opacity:1"
       id="path6181-5"
       cx="1222"
       cy="426"
       r="39.6">
    <circle
       style="display:inline;fill:#000000;fill-opacity:1;stroke:#000000;stroke-width:1;stroke-miterlimit:4;stroke-dasharray:none;stroke-dashoffset:0;stroke-opacity:1"
       id="path6181-5-1"
       cx="1100"
       cy="426"
       r="39.6">
    <circle
       style="display:inline;fill:#000000;fill-opacity:1;stroke:#000000;stroke-width:1;stroke-miterlimit:4;stroke-dasharray:none;stroke-dashoffset:0;stroke-opacity:1"
       id="path6181-5-1-5"
       cx="420"
       cy="425"
       r="39.6">
    <circle
       style="display:inline;fill:#000000;fill-opacity:1;stroke:#000000;stroke-width:1;stroke-miterlimit:4;stroke-dasharray:none;stroke-dashoffset:0;stroke-opacity:1"
       id="path6181-5-1-5-1"
       cx="322"
       cy="426"
       r="39.6">
    <circle
       r="39.6"
       cy="426"
       cx="132"
       id="circle6259"
       style="display:inline;fill:#000000;fill-opacity:1;stroke:#000000;stroke-width:1;stroke-miterlimit:4;stroke-dasharray:none;stroke-dashoffset:0;stroke-opacity:1">
  </g>
  <g
     inkscape:groupmode="layer"
     id="layer2"
     inkscape:label="pointille"
     style="display:inline">
    <path
       transform="translate(241,-694)"
       style="fill:none;fill-rule:evenodd;stroke:#000000;stroke-width:5;stroke-linecap:butt;stroke-linejoin:miter;stroke-miterlimit:4;stroke-dasharray:5, 5;stroke-dashoffset:0;stroke-opacity:1"
       d="M 1310,720 99,720"
       id="path6152"
       inkscape:connector-curvature="0">
    <path
       transform="translate(241,-694)"
       style="display:inline;fill:none;fill-rule:evenodd;stroke:#000000;stroke-width:5;stroke-linecap:butt;stroke-linejoin:miter;stroke-miterlimit:4;stroke-dasharray:5, 5;stroke-dashoffset:0;stroke-opacity:1"
       d="m 100,945 1210,0 0,-220 0,-5"
       id="path6124"
       inkscape:connector-curvature="0"
       sodipodi:nodetypes="cc">
    <path
       transform="translate(241,-694)"
       style="display:inline;fill:none;fill-rule:evenodd;stroke:#000000;stroke-width:5;stroke-linecap:butt;stroke-linejoin:miter;stroke-miterlimit:4;stroke-dasharray:5, 5;stroke-dashoffset:0;stroke-opacity:1"
       d="m 1210,1040 100,-95"
       id="path6150"
       inkscape:connector-curvature="0"
       sodipodi:nodetypes="cc">
    <path
       transform="translate(241,-694)"
       style="display:inline;fill:none;fill-rule:evenodd;stroke:#000000;stroke-width:5;stroke-linecap:butt;stroke-linejoin:miter;stroke-miterlimit:4;stroke-dasharray:5, 5;stroke-dashoffset:0;stroke-opacity:1"
       d="M 12.5,1040 99.7,945"
       id="path6116"
       inkscape:connector-curvature="0"
       sodipodi:nodetypes="cc">
    <path
       transform="translate(241,-694)"
       style="display:inline;fill:none;fill-rule:evenodd;stroke:#000000;stroke-width:5;stroke-linecap:butt;stroke-linejoin:miter;stroke-miterlimit:4;stroke-dasharray:5, 5;stroke-dashoffset:0;stroke-opacity:1"
       d="m 99.7,718 0,227"
       id="path6122"
       inkscape:connector-curvature="0"
       sodipodi:nodetypes="cc">
    <path
       transform="translate(241,-694)"
       style="display:inline;fill:none;fill-rule:evenodd;stroke:#000000;stroke-width:5;stroke-linecap:butt;stroke-linejoin:miter;stroke-miterlimit:4;stroke-dasharray:5, 5;stroke-dashoffset:0;stroke-opacity:1"
       d="M 10.3,808 100,718"
       id="path6112"
       inkscape:connector-curvature="0">
    <path
       style="fill:none;fill-rule:evenodd;stroke:#000000;stroke-width:5;stroke-linecap:butt;stroke-linejoin:miter;stroke-miterlimit:4;stroke-dasharray:5, 5;stroke-dashoffset:0;stroke-opacity:1"
       d="m 252,114 1,231 1197,-1"
       id="path6331"
       inkscape:connector-curvature="0">
    <path
       style="fill:none;fill-rule:evenodd;stroke:#000000;stroke-width:5;stroke-linecap:butt;stroke-linejoin:miter;stroke-miterlimit:4;stroke-dasharray:5, 5;stroke-dashoffset:0;stroke-opacity:1"
       d="m 1450,343 0,-230 100,-84"
       id="path6333"
       inkscape:connector-curvature="0"
       sodipodi:nodetypes="ccc">
    <path
       style="fill:none;fill-rule:evenodd;stroke:#000000;stroke-width:5;stroke-linecap:butt;stroke-linejoin:miter;stroke-miterlimit:4;stroke-dasharray:5, 5;stroke-dashoffset:0;stroke-opacity:1"
       d="m 250,113 1200,0"
       id="path6335"
       inkscape:connector-curvature="0"
       sodipodi:nodetypes="cc">
  </g>
  <g
     inkscape:groupmode="layer"
     id="layer1"
     inkscape:label="box"
     style="display:inline">
    <rect
       style="opacity:1;fill:#89ff90;fill-opacity:1;stroke:#000000;stroke-width:5;stroke-miterlimit:4;stroke-dasharray:5, 5;stroke-dashoffset:0;stroke-opacity:1"
       id="rect4910"
       width="1210"
       height="229"
       x="240"
       y="112">
    <path
       style="opacity:1;fill:#89ff90;fill-opacity:1;stroke:#000000;stroke-width:5;stroke-miterlimit:4;stroke-dasharray:5, 5;stroke-dashoffset:0;stroke-opacity:1"
       d="m 1450,112 100,-90.4 0,229.4 -100,90 z"
       id="rect4912"
       inkscape:connector-curvature="0"
       sodipodi:nodetypes="ccccc">
    <path
       style="fill:#89ff90;fill-opacity:1;fill-rule:evenodd;stroke:#000000;stroke-width:1px;stroke-linecap:butt;stroke-linejoin:miter;stroke-opacity:1"
       d="M 237,109 345,27 1550,24.2 1450,109 Z"
       id="path4915"
       inkscape:connector-curvature="0">
  </g>
  <g
     inkscape:groupmode="layer"
     id="layer10"
     inkscape:label="fenetre"
     style="display:inline">
    <path
       style="fill:#ffd5d5;fill-rule:evenodd;stroke:#000000;stroke-width:1px;stroke-linecap:butt;stroke-linejoin:miter;stroke-opacity:1;fill-opacity:1;opacity:1"
       d="M 65.5,133 21,258 l 118,0 2,-125 z"
       id="path6338"
       inkscape:connector-curvature="0">
    <path
       style="fill:#000000;fill-rule:evenodd;stroke:#000000;stroke-width:1px;stroke-linecap:butt;stroke-linejoin:miter;stroke-opacity:1;fill-opacity:1"
       d="m 110,267 0,10 30,1 -1,-11 z"
       id="path6340"
       inkscape:connector-curvature="0">
  </g>
</svg>
