<?xml version="1.0" encoding="utf-8"?>
<!-- Generator: Adobe Illustrator 21.0.0, SVG Export Plug-In . SVG Version: 6.00 Build 0)  -->
<svg version="1.1" id="Capa_1" xmlns="http://www.w3.org/2000/svg" xmlns:xlink="http://www.w3.org/1999/xlink" x="0px" y="0px"
	 viewBox="0 0 490 490" style="enable-background:new 0 0 490 490;" xml:space="preserve">
<path d="M464.8,255.4l-56.3-94.3c-1.8-3.1-4.5-4.8-7.4-4.8h-93.7V116c0-7.4-4.3-13.3-9.6-13.3H24.6c-5.3,0-9.6,6-9.6,13.3v266.8
	c0,7.4,4.3,13.3,9.6,13.3h15c0.9,39.3,24.2,70.9,52.8,70.9s51.9-31.6,52.8-70.9h152.6c0.4,0,0.8,0,1.1-0.1v0.1h39.4
	c0.9,39.3,24.2,70.9,52.8,70.9c28.6,0,51.9-31.6,52.8-70.9h13.6c5.3,0,9.6-6,9.6-13.3V263.9C467,260.8,466.2,257.8,464.8,255.4z
	 M92.4,440.3c-18.5,0-33.6-20.9-33.6-46.6s15.1-46.6,33.6-46.6s33.6,20.9,33.6,46.6S110.9,440.3,92.4,440.3z M288.2,369.4H142.2
	c-7.3-28.5-26.8-48.9-49.8-48.9c-23,0-42.5,20.5-49.8,48.9h-8.4V129.3h253.9L288.2,369.4L288.2,369.4z M447.8,268.7v6.8h-95.9V183
	h44.6L447.8,268.7z M391,440.3c-18.5,0-33.6-20.9-33.6-46.6c0-2.7,2.8-46.6,33.6-46.6c31,0,33.6,43.8,33.6,46.6
	C424.6,419.4,409.6,440.3,391,440.3z M440.9,369.4c-7.3-28.8-27.3-48.9-49.8-48.9c-22.7,0-42.5,20-49.8,48.9h-33.9V183h25.3v105.9
	c0,7.4,4.3,13.3,9.6,13.3h105.5v67.1H440.9z"/>
<rect x="69" y="165.7" width="170.9" height="26.7"/>
<rect x="69" y="251.8" width="170.9" height="26.7"/>
</svg>
