<?xml version="1.0" encoding="iso-8859-1"?>
<!-- Generator: Adobe Illustrator 18.0.0, SVG Export Plug-In . SVG Version: 6.00 Build 0)  -->
<!DOCTYPE svg PUBLIC "-//W3C//DTD SVG 1.1//EN" "http://www.w3.org/Graphics/SVG/1.1/DTD/svg11.dtd">
<svg version="1.1" id="Capa_1" xmlns="http://www.w3.org/2000/svg" xmlns:xlink="http://www.w3.org/1999/xlink" x="0px" y="0px"
	 viewBox="0 0 394.22 394.22" style="enable-background:new 0 0 394.22 394.22;" xml:space="preserve">
<g>
	<path d="M84.802,137.811c-5.523,0-10,4.477-10,10v42.855c0,5.523,4.477,10,10,10s10-4.477,10-10v-42.855
		C94.802,142.288,90.325,137.811,84.802,137.811z"/>
	<path d="M141.863,137.738c-5.523,0-10,4.477-10,10v43c0,5.523,4.477,10,10,10s10-4.477,10-10v-43
		C151.863,142.215,147.386,137.738,141.863,137.738z"/>
	<path d="M198.924,137.738c-5.523,0-10,4.477-10,10v43c0,5.523,4.477,10,10,10s10-4.477,10-10v-43
		C208.924,142.215,204.447,137.738,198.924,137.738z"/>
	<path d="M337.235,104.327h-67.396c-5.523,0-10,4.477-10,10V235.96h-7.066v-18.541
		c0-0.134-0.015-0.264-0.02-0.397c0.005-0.133,0.02-0.263,0.02-0.397V115.993c0-5.523-4.477-10-10-10h-9.727l-39.282-21.476
		c-40.183-21.967-88.413-22.437-129.016-1.255l-43.57,22.731H10c-5.523,0-10,4.477-10,10v40.963c0,2.527,0.957,4.96,2.678,6.811
		l40.598,43.652H10c-5.523,0-10,4.477-10,10v59.724c0,5.523,4.477,10,10,10h52.947c1.913,22.029,20.444,39.375,42.961,39.375
		s41.048-17.346,42.961-39.375h93.904c5.523,0,10-4.477,10-10V255.96h7.066v21.183c0,5.523,4.477,10,10,10h12.549
		c1.913,22.029,20.444,39.375,42.961,39.375c23.531,0,42.709-18.942,43.116-42.378c15.084-6.113,25.756-20.909,25.756-38.16v-84.667
		C394.22,129.891,368.656,104.327,337.235,104.327z M73.999,100.994c34.672-18.089,75.858-17.688,110.171,1.071l7.183,3.927H64.418
		L73.999,100.994z M105.908,306.518c-12.756,0-23.135-10.378-23.135-23.135s10.378-23.135,23.135-23.135
		s23.135,10.378,23.135,23.135S118.664,306.518,105.908,306.518z M232.773,267.143h-86.915
		c-6.429-15.757-21.909-26.895-39.951-26.895s-33.522,11.138-39.951,26.895H20v-39.724h212.773V267.143z M232.773,207.419H70.59
		L20,153.025v-27.032h3.609c0.01,0,0.019,0.002,0.029,0.002c0.011,0,0.022-0.002,0.033-0.002h206.739c0.032,0,0.064,0,0.096,0h2.267
		V207.419z M325.348,306.518c-12.756,0-23.135-10.378-23.135-23.135s10.378-23.135,23.135-23.135s23.135,10.378,23.135,23.135
		S338.104,306.518,325.348,306.518z M374.22,245.98c0,7.695-4.142,14.424-10.3,18.128c-7.091-14.132-21.713-23.86-38.572-23.86
		c-18.041,0-33.522,11.138-39.951,26.895h-5.559v-38.776h94.381V245.98z M374.22,208.367h-94.381v-84.04h57.396
		c8.774,0,16.839,3.077,23.187,8.201h-51.83c-5.523,0-10,4.477-10,10v45.023c0,5.523,4.477,10,10,10h65.628V208.367z
		 M374.22,177.551h-55.628v-25.023h54.565c0.689,2.818,1.063,5.758,1.063,8.785V177.551z"/>
</g>
<g>
</g>
<g>
</g>
<g>
</g>
<g>
</g>
<g>
</g>
<g>
</g>
<g>
</g>
<g>
</g>
<g>
</g>
<g>
</g>
<g>
</g>
<g>
</g>
<g>
</g>
<g>
</g>
<g>
</g>
</svg>
