<?xml version="1.0" encoding="iso-8859-1"?>
<!-- Generator: Adobe Illustrator 19.0.0, SVG Export Plug-In . SVG Version: 6.00 Build 0)  -->
<svg version="1.1" id="Capa_1" xmlns="http://www.w3.org/2000/svg" xmlns:xlink="http://www.w3.org/1999/xlink" x="0px" y="0px"
	 viewBox="0 0 512 512" style="enable-background:new 0 0 512 512;" xml:space="preserve">
<g>
	<g>
		<path d="M511.243,230.699l-37.333-93.259c-4.828-12.162-16.6-20.136-29.685-20.107H32c-17.673,0-32,14.327-32,32v181.333
			c0,17.673,14.327,32,32,32h22.848c5.785,22.728,28.898,36.463,51.626,30.678c15.072-3.836,26.842-15.606,30.678-30.678h237.696
			c5.785,22.728,28.898,36.463,51.626,30.678c15.073-3.836,26.842-15.606,30.678-30.678H480c17.673,0,32-14.327,32-32v-96
			C512.001,233.308,511.744,231.962,511.243,230.699z M405.333,138.667h38.891c4.361,0.003,8.281,2.66,9.899,6.709l0.011-0.011
			l27.179,67.968h-75.979V138.667z M309.333,138.667H384v74.667h-74.667V138.667z M202.667,138.667H288v74.667h-85.333V138.667z
			 M106.667,138.667h74.667v74.667h-74.667V138.667z M21.333,149.333c0-5.891,4.776-10.667,10.667-10.667h53.333v74.667h-64V149.333
			z M96,373.333c-11.782,0-21.333-9.551-21.333-21.333c0-11.782,9.551-21.333,21.333-21.333c11.782,0,21.333,9.551,21.333,21.333
			C117.333,363.782,107.782,373.333,96,373.333z M416,373.333c-11.782,0-21.333-9.551-21.333-21.333
			c0-11.782,9.551-21.333,21.333-21.333c11.782,0,21.333,9.551,21.333,21.333C437.333,363.782,427.782,373.333,416,373.333z
			 M490.667,256H480c-5.891,0-10.667,4.776-10.667,10.667s4.776,10.667,10.667,10.667h10.667v53.333
			c0,5.891-4.776,10.667-10.667,10.667h-22.848c-5.785-22.728-28.898-36.463-51.626-30.678
			c-15.072,3.836-26.842,15.606-30.678,30.678H137.152c-5.785-22.728-28.898-36.463-51.626-30.678
			c-15.072,3.836-26.842,15.606-30.678,30.678H32c-5.891,0-10.667-4.776-10.667-10.667v-96h468.512l0.821,2.048V256z"/>
	</g>
</g>
<g>
</g>
<g>
</g>
<g>
</g>
<g>
</g>
<g>
</g>
<g>
</g>
<g>
</g>
<g>
</g>
<g>
</g>
<g>
</g>
<g>
</g>
<g>
</g>
<g>
</g>
<g>
</g>
<g>
</g>
</svg>
