<?xml version="1.0" encoding="iso-8859-1"?>
<!-- Generator: Adobe Illustrator 19.0.0, SVG Export Plug-In . SVG Version: 6.00 Build 0)  -->
<svg version="1.1" id="Layer_1" xmlns="http://www.w3.org/2000/svg" xmlns:xlink="http://www.w3.org/1999/xlink" x="0px" y="0px"
	 viewBox="0 0 512 512" style="enable-background:new 0 0 512 512;" xml:space="preserve">
<g transform="translate(1 1)">
	<g>
		<g>
			<path d="M75.8,361.667c-9.387,0-17.067,7.68-17.067,17.067S66.413,395.8,75.8,395.8s17.067-7.68,17.067-17.067
				S85.187,361.667,75.8,361.667z"/>
			<path d="M161.133,361.667c-9.387,0-17.067,7.68-17.067,17.067s7.68,17.067,17.067,17.067c9.387,0,17.067-7.68,17.067-17.067
				S170.52,361.667,161.133,361.667z"/>
			<path d="M434.2,361.667c-9.387,0-17.067,7.68-17.067,17.067s7.68,17.067,17.067,17.067s17.067-7.68,17.067-17.067
				S443.587,361.667,434.2,361.667z"/>
			<path d="M400.067,250.733h68.267c5.12,0,8.533-3.413,8.533-8.533v-48.64c0-20.48-16.213-36.693-36.693-36.693h-40.107
				c-5.12,0-8.533,3.413-8.533,8.533v76.8C391.533,247.32,394.947,250.733,400.067,250.733z M408.6,173.933h31.573
				c11.093,0,19.627,8.533,19.627,19.627v40.107h-51.2V173.933z"/>
			<path d="M67.267,114.2c-5.12,0-8.533,3.413-8.533,8.533v153.6c0,5.12,3.413,8.533,8.533,8.533s8.533-3.413,8.533-8.533v-153.6
				C75.8,117.613,72.387,114.2,67.267,114.2z"/>
			<path d="M118.467,114.2c-5.12,0-8.533,3.413-8.533,8.533v153.6c0,5.12,3.413,8.533,8.533,8.533s8.533-3.413,8.533-8.533v-153.6
				C127,117.613,123.587,114.2,118.467,114.2z"/>
			<path d="M169.667,114.2c-5.12,0-8.533,3.413-8.533,8.533v153.6c0,5.12,3.413,8.533,8.533,8.533s8.533-3.413,8.533-8.533v-153.6
				C178.2,117.613,174.787,114.2,169.667,114.2z"/>
			<path d="M220.867,114.2c-5.12,0-8.533,3.413-8.533,8.533v153.6c0,5.12,3.413,8.533,8.533,8.533s8.533-3.413,8.533-8.533v-153.6
				C229.4,117.613,225.987,114.2,220.867,114.2z"/>
			<path d="M272.067,114.2c-5.12,0-8.533,3.413-8.533,8.533v153.6c0,5.12,3.413,8.533,8.533,8.533c5.12,0,8.533-3.413,8.533-8.533
				v-153.6C280.6,117.613,277.187,114.2,272.067,114.2z"/>
			<path d="M323.267,114.2c-5.12,0-8.533,3.413-8.533,8.533v153.6c0,5.12,3.413,8.533,8.533,8.533s8.533-3.413,8.533-8.533v-153.6
				C331.8,117.613,328.387,114.2,323.267,114.2z"/>
			<path d="M502.467,301.933V185.88c0-29.867-24.747-54.613-54.613-54.613H383V88.6c0-5.12-3.413-8.533-8.533-8.533h-358.4
				c-5.12,0-8.533,3.413-8.533,8.533v213.333c-5.12,0-8.533,3.413-8.533,8.533v68.267c0,5.12,3.413,8.533,8.533,8.533H25.33
				c4.095,24.134,25.217,42.667,50.47,42.667c17.759,0,33.475-9.169,42.667-23.001c9.192,13.832,24.907,23.001,42.667,23.001
				c25.253,0,46.375-18.533,50.47-42.667H383.73c4.095,24.134,25.217,42.667,50.47,42.667c25.253,0,46.375-18.533,50.47-42.667
				h17.797c5.12,0,8.533-3.413,8.533-8.533v-68.267C511,305.347,507.587,301.933,502.467,301.933z M447.853,148.333
				c20.48,0,37.547,17.067,37.547,37.547v116.053H383v-153.6H447.853z M24.6,97.133h341.333V139.8v162.133H24.6V97.133z
				 M75.8,412.867c-18.773,0-34.133-15.36-34.133-34.133S57.027,344.6,75.8,344.6c18.773,0,34.133,15.36,34.133,34.133
				S94.573,412.867,75.8,412.867z M161.133,412.867c-18.773,0-34.133-15.36-34.133-34.133s15.36-34.133,34.133-34.133
				c18.773,0,34.133,15.36,34.133,34.133S179.907,412.867,161.133,412.867z M434.2,412.867c-18.773,0-34.133-15.36-34.133-34.133
				S415.427,344.6,434.2,344.6c18.773,0,34.133,15.36,34.133,34.133S452.973,412.867,434.2,412.867z M493.933,370.2h-9.263
				c-2.881-16.979-14.191-31.176-29.441-38.105c-0.339-0.155-0.676-0.315-1.019-0.463c-0.213-0.091-0.43-0.174-0.645-0.263
				c-0.554-0.229-1.111-0.453-1.675-0.664c-0.151-0.056-0.305-0.108-0.457-0.163c-0.626-0.226-1.257-0.442-1.894-0.644
				c-0.137-0.043-0.276-0.084-0.414-0.127c-0.648-0.199-1.302-0.387-1.962-0.561c-0.146-0.038-0.292-0.076-0.439-0.113
				c-0.648-0.164-1.301-0.316-1.959-0.455c-0.166-0.035-0.332-0.071-0.498-0.104c-0.635-0.128-1.276-0.242-1.921-0.345
				c-0.191-0.031-0.382-0.064-0.574-0.093c-0.621-0.093-1.248-0.17-1.877-0.24c-0.213-0.024-0.425-0.052-0.639-0.074
				c-0.629-0.062-1.263-0.107-1.899-0.146c-0.21-0.013-0.417-0.033-0.628-0.043c-0.837-0.041-1.68-0.065-2.529-0.065
				c-0.849,0-1.692,0.024-2.529,0.065c-0.21,0.01-0.418,0.03-0.628,0.043c-0.636,0.039-1.27,0.084-1.899,0.146
				c-0.214,0.021-0.426,0.05-0.639,0.074c-0.629,0.07-1.256,0.148-1.877,0.24c-0.192,0.029-0.382,0.062-0.573,0.093
				c-0.645,0.104-1.286,0.218-1.922,0.346c-0.166,0.033-0.332,0.069-0.497,0.104c-0.659,0.139-1.312,0.291-1.96,0.455
				c-0.146,0.037-0.293,0.074-0.439,0.113c-0.66,0.174-1.313,0.361-1.962,0.56c-0.138,0.042-0.277,0.083-0.415,0.127
				c-0.637,0.202-1.267,0.418-1.893,0.644c-0.153,0.055-0.307,0.107-0.459,0.163c-0.563,0.21-1.119,0.433-1.672,0.662
				c-0.216,0.089-0.434,0.172-0.648,0.264c-0.342,0.148-0.678,0.307-1.017,0.462c-15.252,6.929-26.563,21.126-29.444,38.106H211.603
				c-2.881-16.98-14.192-31.177-29.444-38.106c-0.338-0.155-0.674-0.314-1.017-0.462c-0.214-0.092-0.432-0.175-0.648-0.264
				c-0.553-0.229-1.109-0.453-1.672-0.662c-0.152-0.056-0.306-0.108-0.459-0.163c-0.625-0.226-1.256-0.442-1.893-0.644
				c-0.138-0.044-0.276-0.085-0.415-0.127c-0.648-0.199-1.302-0.386-1.962-0.56c-0.146-0.038-0.292-0.076-0.439-0.113
				c-0.648-0.164-1.301-0.316-1.959-0.455c-0.166-0.035-0.331-0.071-0.498-0.104c-0.636-0.128-1.277-0.242-1.921-0.346
				c-0.191-0.031-0.381-0.064-0.573-0.093c-0.621-0.093-1.248-0.17-1.877-0.24c-0.213-0.024-0.425-0.052-0.639-0.074
				c-0.629-0.062-1.263-0.107-1.899-0.146c-0.21-0.013-0.417-0.033-0.628-0.043c-0.837-0.041-1.68-0.065-2.529-0.065
				c-1.025,0-2.041,0.039-3.051,0.1c-0.281,0.017-0.56,0.043-0.84,0.064c-0.77,0.059-1.536,0.133-2.296,0.226
				c-0.245,0.03-0.49,0.06-0.734,0.094c-14.877,2.034-27.769,10.513-35.746,22.517c-7.977-12.004-20.869-20.483-35.746-22.517
				c-0.244-0.034-0.489-0.064-0.734-0.094c-0.76-0.093-1.526-0.167-2.296-0.226c-0.28-0.022-0.558-0.047-0.84-0.064
				c-1.011-0.06-2.026-0.1-3.051-0.1c-0.849,0-1.692,0.024-2.529,0.065c-0.21,0.01-0.418,0.03-0.628,0.043
				c-0.636,0.039-1.27,0.084-1.899,0.146c-0.214,0.021-0.426,0.05-0.639,0.074c-0.629,0.07-1.256,0.148-1.877,0.24
				c-0.192,0.029-0.382,0.062-0.573,0.093c-0.645,0.104-1.286,0.218-1.922,0.346c-0.166,0.033-0.332,0.069-0.497,0.104
				c-0.659,0.139-1.312,0.291-1.96,0.455c-0.146,0.037-0.293,0.074-0.439,0.113c-0.66,0.174-1.313,0.361-1.962,0.56
				c-0.138,0.042-0.277,0.083-0.415,0.127c-0.637,0.202-1.267,0.418-1.893,0.644c-0.153,0.055-0.307,0.107-0.459,0.163
				c-0.563,0.21-1.119,0.433-1.672,0.662c-0.216,0.089-0.434,0.172-0.648,0.264c-0.342,0.148-0.678,0.307-1.017,0.462
				C39.522,339.023,28.211,353.22,25.33,370.2h-9.263V319h358.4h119.467V370.2z"/>
			<path d="M400.067,276.333h17.067c5.12,0,8.533-3.413,8.533-8.533s-3.413-8.533-8.533-8.533h-17.067
				c-5.12,0-8.533,3.413-8.533,8.533S394.947,276.333,400.067,276.333z"/>
		</g>
	</g>
</g>
<g>
</g>
<g>
</g>
<g>
</g>
<g>
</g>
<g>
</g>
<g>
</g>
<g>
</g>
<g>
</g>
<g>
</g>
<g>
</g>
<g>
</g>
<g>
</g>
<g>
</g>
<g>
</g>
<g>
</g>
</svg>
