<?xml version="1.0" encoding="utf-8"?>
<!-- Generator: Adobe Illustrator 21.0.0, SVG Export Plug-In . SVG Version: 6.00 Build 0)  -->
<svg version="1.1" id="Capa_1" xmlns="http://www.w3.org/2000/svg" xmlns:xlink="http://www.w3.org/1999/xlink" x="0px" y="0px"
	 viewBox="0 0 674.5 474.5" style="enable-background:new 0 0 674.5 474.5;" xml:space="preserve">
<path d="M13.7,197.3v-10.5c0-12.6,5.1-24.6,14.2-32.9l60.8-56c7.5-6.9,17-10.6,26.8-10.6H260c8.9,0,17.7,3.2,24.9,8.9l59.4,48.2
	l78.5,14.8c11.1,2.1,21.1,9.1,27.2,19.2l4.1,6.7c5.1,8.5,7.9,18.3,7.9,28.5c0,7.4-1.5,14.6-4.4,21.5c-2.9,6.8-7,12.7-12.1,17.7
	l-5.6,5.2c-8.3,7.9-19.2,12.3-30.4,12.3h-12.6c-4.2,8.5-10.4,15.8-17.8,21.1h92V93.5c0-7.4,5.7-13.5,12.7-13.5h137.1
	c5.7,0,10.7,4.1,12.3,10l40.1,157.3c0.3,1.2,0.4,2.3,0.4,3.5v107.9c0,7.4-5.7,13.5-12.7,13.5H623c0.3,2.6,0.6,5.2,0.6,7.9
	c0,31.4-24,56.9-53.4,56.9c-29.4,0-53.4-25.5-53.4-56.9c0-2.7,0.1-5.3,0.6-7.9H302.5c0.3,2.6,0.6,5.2,0.6,7.9
	c0,31.4-24,56.9-53.4,56.9s-53.4-25.5-53.4-56.9c0-2.7,0.1-5.3,0.6-7.9h-15.8c0.3,2.6,0.6,5.2,0.6,7.9c0,31.4-24,56.9-53.4,56.9
	S75,411.5,75,380.1c0-2.7,0.1-5.3,0.6-7.9H53.2c-7,0-12.7-6-12.7-13.5v-53.9c0-7.4,5.7-13.5,12.7-13.5h23.8
	c-7.5-5.3-13.6-12.6-17.8-21.1h-6.4c-14.8,0-28.9-7.4-38-19.9C9.1,242.5,6,232.9,6,223C6,213.7,8.8,204.8,13.7,197.3z M77.8,143.5
	h24.9l6.7-28c-1.5,0.7-2.9,1.6-4.2,2.7L77.8,143.5z M128.8,143.5h67.4l-6.3-29.3h-54.1L128.8,143.5z M269.3,117.6
	c-2.8-2.2-6.1-3.4-9.5-3.4h-44l6.3,29.3h79.2L269.3,117.6z M377.5,243.8c0-16.5-12.6-29.9-28.1-29.9s-28.1,13.4-28.1,29.9
	s12.6,29.9,28.1,29.9C364.9,273.8,377.5,260.3,377.5,243.8z M611,107h-47.2v108.2l79.4,17.9L611,107z M570.1,410
	c15.5,0,28.1-13.4,28.1-29.9s-12.6-29.9-28.1-29.9S542,363.6,542,380.1C542,396.6,554.6,410,570.1,410z M570.1,323.2
	c17.1,0,32.5,8.6,42.1,22H648V307H627c-7,0-12.7-6-12.7-13.5S619.9,280,627,280H648v-18.3l-99.6-22.4c-5.8-1.3-10.1-6.8-10.1-13.2
	V107h-42.3v238.2H528C537.8,331.8,553,323.2,570.1,323.2z M249.3,410c15.5,0,28.1-13.4,28.1-29.9s-12.6-29.9-28.1-29.9
	s-28.1,13.4-28.1,29.9S233.8,410,249.3,410z M127.8,410c15.5,0,28.1-13.4,28.1-29.9s-12.6-29.9-28.1-29.9s-28.2,13.4-28.2,29.9
	S112.3,410,127.8,410z M65.9,345.2h19.6c9.8-13.4,25-22,42.1-22s32.5,8.6,42.1,22H207c9.8-13.4,25-22,42.1-22s32.5,8.6,42.1,22H471
	v-27h-405V345.2z M319.9,291.3c-7.5-5.3-13.6-12.6-17.8-21.1H153.8c-4.2,8.5-10.4,15.8-17.8,21.1H319.9z M134.7,243.8
	c0-16.5-12.6-29.9-28.1-29.9s-28.1,13.4-28.1,29.9s12.6,29.9,28.1,29.9C122.1,273.8,134.7,260.3,134.7,243.8z M34.8,233.8
	c4.2,5.9,11,9.4,18,9.4h0.3c0.3-31.1,24.1-56.3,53.4-56.3s53.1,25.2,53.4,56.3h136.1c0.3-31.1,24.1-56.3,53.4-56.3
	s53.1,25.2,53.4,56.3h6.4c5,0,9.8-2,13.6-5.5l5.6-5.2c1.8-1.6,3.2-3.5,4.4-5.5h-10.4c-7,0-12.7-6-12.7-13.5s5.7-13.5,12.7-13.5h10.4
	c0-0.1-0.1-0.2-0.1-0.3l-4.1-6.7c-2.3-3.8-6.1-6.5-10.2-7.3l-80.4-15.2H48.5l-4.1,3.8c-3.4,3.1-5.4,7.7-5.4,12.5V202
	c0,3.4-1.2,6.6-3.4,9.1c-2.8,3.3-4.4,7.5-4.4,11.9C31.4,227,32.6,230.7,34.8,233.8z"/>
</svg>
