<?xml version="1.0" encoding="utf-8"?>
<!-- Generator: Adobe Illustrator 21.0.0, SVG Export Plug-In . SVG Version: 6.00 Build 0)  -->
<svg version="1.1" id="Capa_1" xmlns="http://www.w3.org/2000/svg" xmlns:xlink="http://www.w3.org/1999/xlink" x="0px" y="0px"
	 viewBox="0 0 474.5 474.5" style="enable-background:new 0 0 474.5 474.5;" xml:space="preserve">
<path d="M14.3,191.3v-10.5c0-12.6,3.5-24.6,9.7-32.9l41.6-56c5.1-6.9,11.6-10.6,18.3-10.6h98.8c6.1,0,12.1,3.2,17,8.9l40.6,48.2
	l53.7,14.8c7.6,2.1,14.4,9.1,18.6,19.2l2.8,6.7c3.5,8.5,5.4,18.3,5.4,28.5c0,7.4-1,14.6-3,21.5c-2,6.8-4.8,12.7-8.3,17.7l-3.8,5.2
	c-5.7,7.9-13.1,12.3-20.8,12.3h-8.6c-2.9,8.5-7.1,15.8-12.2,21.1H327V87.5c0-7.4,3.9-13.5,8.7-13.5h93.8c3.9,0,7.3,4.1,8.4,10
	l27.4,157.3c0.2,1.2,0.3,2.3,0.3,3.5v107.9c0,7.4-3.9,13.5-8.7,13.5H431c0.2,2.6,0.4,5.2,0.4,7.9c0,31.4-16.4,56.9-36.5,56.9
	c-20.1,0-36.5-25.5-36.5-56.9c0-2.7,0.1-5.3,0.4-7.9h-147c0.2,2.6,0.4,5.2,0.4,7.9c0,31.4-16.4,56.9-36.5,56.9s-36.5-25.5-36.5-56.9
	c0-2.7,0.1-5.3,0.4-7.9h-10.8c0.2,2.6,0.4,5.2,0.4,7.9c0,31.4-16.4,56.9-36.5,56.9s-36.5-25.5-36.5-56.9c0-2.7,0.1-5.3,0.4-7.9H41.3
	c-4.8,0-8.7-6-8.7-13.5v-53.9c0-7.4,3.9-13.5,8.7-13.5h16.3c-5.1-5.3-9.3-12.6-12.2-21.1H41c-10.1,0-19.8-7.4-26-19.9
	c-3.9-7.8-6-17.4-6-27.3C9,207.7,10.9,198.8,14.3,191.3z M58.1,137.5h17l4.6-28c-1,0.7-2,1.6-2.9,2.7L58.1,137.5z M93,137.5h46.1
	l-4.3-29.3h-37L93,137.5z M189.1,111.6c-1.9-2.2-4.2-3.4-6.5-3.4h-30.1l4.3,29.3H211L189.1,111.6z M263.1,237.8
	c0-16.5-8.6-29.9-19.2-29.9c-10.6,0-19.2,13.4-19.2,29.9c0,16.5,8.6,29.9,19.2,29.9C254.5,267.8,263.1,254.3,263.1,237.8z
	 M422.8,101h-32.3v108.2l54.3,17.9L422.8,101z M394.8,404c10.6,0,19.2-13.4,19.2-29.9c0-16.5-8.6-29.9-19.2-29.9
	c-10.6,0-19.2,13.4-19.2,29.9C375.6,390.6,384.2,404,394.8,404z M394.8,317.2c11.7,0,22.2,8.6,28.8,22h24.5V301h-14.4
	c-4.8,0-8.7-6-8.7-13.5s3.9-13.5,8.7-13.5h14.4v-18.3L380,233.3c-4-1.3-6.9-6.8-6.9-13.2V101h-28.9l0,238.2H366
	C372.7,325.8,383.1,317.2,394.8,317.2z M175.4,404c10.6,0,19.2-13.4,19.2-29.9c0-16.5-8.6-29.9-19.2-29.9s-19.2,13.4-19.2,29.9
	C156.2,390.6,164.8,404,175.4,404z M92.3,404c10.6,0,19.2-13.4,19.2-29.9c0-16.5-8.6-29.9-19.2-29.9S73,357.6,73,374.1
	C73,390.6,81.7,404,92.3,404z M50,339.2h13.4c6.7-13.4,17.1-22,28.8-22s22.2,8.6,28.8,22h25.5c6.7-13.4,17.1-22,28.8-22
	c11.7,0,22.2,8.6,28.8,22H327v-27H50V339.2z M223.7,285.3c-5.1-5.3-9.3-12.6-12.2-21.1H110.1c-2.9,8.5-7.1,15.8-12.2,21.1H223.7z
	 M97,237.8c0-16.5-8.6-29.9-19.2-29.9c-10.6,0-19.2,13.4-19.2,29.9c0,16.5,8.6,29.9,19.2,29.9C88.4,267.8,97,254.3,97,237.8z
	 M28.7,227.8c2.9,5.9,7.5,9.4,12.3,9.4h0.2c0.2-31.1,16.5-56.3,36.5-56.3s36.3,25.2,36.5,56.3h93.1c0.2-31.1,16.5-56.3,36.5-56.3
	c20,0,36.3,25.2,36.5,56.3h4.4c3.4,0,6.7-2,9.3-5.5l3.8-5.2c1.2-1.6,2.2-3.5,3-5.5h-7.1c-4.8,0-8.7-6-8.7-13.5s3.9-13.5,8.7-13.5
	h7.1c0-0.1-0.1-0.2-0.1-0.3l-2.8-6.7c-1.6-3.8-4.2-6.5-7-7.3l-55-15.2H38.1l-2.8,3.8c-2.3,3.1-3.7,7.7-3.7,12.5V196
	c0,3.4-0.8,6.6-2.3,9.1c-1.9,3.3-3,7.5-3,11.9C26.4,221,27.2,224.7,28.7,227.8z"/>
</svg>
