<?xml version="1.0" encoding="utf-8"?>
<!-- Generator: Adobe Illustrator 21.0.0, SVG Export Plug-In . SVG Version: 6.00 Build 0)  -->
<svg version="1.1" id="Capa_1" xmlns="http://www.w3.org/2000/svg" xmlns:xlink="http://www.w3.org/1999/xlink" x="0px" y="0px"
	 viewBox="0 0 463 463" style="enable-background:new 0 0 463 463;" xml:space="preserve">
<path d="M445.7,315.9l-19.2-86.5c-2.8-12.6-11.2-21.1-21-21.1h-41c-3.9,0-7,4.2-7,9.5v20.8h-15.8v-49.8c0-5.9-3.5-10.7-7.9-10.7
	H22.9c-4.4,0-7.9,4.8-7.9,10.7v169c0,5.9,3.5,10.7,7.9,10.7h7v20.8c0,5.2,3.1,9.5,7,9.5h53.4c3.1,17.4,14.7,30.3,28.5,30.3
	c8.9,0,17-5.5,22.3-14c5.4,8.6,13.4,14,22.3,14c13.8,0,25.3-12.9,28.5-30.3h70.6c2.5,6,7.2,10.1,12.6,10.1h37.2
	c5.4,0,10.2-4.1,12.6-10.1h18.5c3.1,17.4,14.7,30.3,28.5,30.3s25.3-12.9,28.5-30.3H439c3.9,0,7-4.2,7-9.5v-70.6
	C446,317.7,445.9,316.8,445.7,315.9z M429.6,309.2h-20.4c-8.5,0-15.4-9.3-15.4-20.8v-30.9h24.3L429.6,309.2z M343.5,379.8h-16.7
	v-10.7c0-0.2,0-0.4,0-0.6h7.9H347C345.4,371.9,344.2,375.7,343.5,379.8z M357.6,257.5v92.1h-15.8v-92.1H357.6z M29,307.9h259.1l-3,4
	c-2.7,3.7-2.7,9.7,0,13.4c1.4,1.8,3.2,2.8,4.9,2.8c1.8,0,3.6-0.9,4.9-2.8l14.9-20.2c2.7-3.7,2.7-9.7,0-13.4L295,271.6
	c-2.7-3.7-7.1-3.7-9.9,0c-2.7,3.7-2.7,9.7,0,13.4l3,4H29v-92.1h298.8v152.6H29V307.9z M260.7,369.1v10.7h-68.8
	c-0.7-4.1-1.9-7.9-3.5-11.4h72.3C260.8,368.7,260.7,368.9,260.7,369.1z M43.9,368.5h50c-1.6,3.5-2.8,7.3-3.5,11.4H43.9V368.5z
	 M118.8,410.1c-8.5,0-15.4-9.3-15.4-20.8c0-11.5,6.9-20.8,15.4-20.8s15.4,9.3,15.4,20.8C134.2,400.7,127.3,410.1,118.8,410.1z
	 M163.5,410.1c-8.5,0-15.4-9.3-15.4-20.8c0-11.5,6.9-20.8,15.4-20.8c8.5,0,15.4,9.3,15.4,20.8C178.8,400.7,171.9,410.1,163.5,410.1z
	 M312.4,389.9h-37.2c-0.3,0-0.5-0.3-0.5-0.6v-20.2c0-0.3,0.2-0.6,0.5-0.6h37.2c0.3,0,0.5,0.3,0.5,0.6v20.2
	C312.9,389.6,312.7,389.9,312.4,389.9z M372,410.1c-8.5,0-15.4-9.3-15.4-20.8c0-11.5,6.9-20.8,15.4-20.8c8.5,0,15.4,9.3,15.4,20.8
	C387.3,400.7,380.5,410.1,372,410.1z M400.5,379.8c-3.1-17.4-14.7-30.3-28.5-30.3c-0.2,0-0.3,0-0.5,0V227.2h34.1
	c3.5,0,6.6,3.1,7.6,7.6l0.8,3.7h-27.1c-3.9,0-7,4.2-7,9.5v40.4c0,21.9,13.2,39.7,29.3,39.7H432v11.4h-7.9c-3.9,0-7,4.2-7,9.5
	c0,5.2,3.1,9.5,7,9.5h7.9v21.4H400.5z"/>
<g>
	<path d="M239,95.6l-28.7,7.7l-11.1-6.4v-12l10.9-6.3l28.9,7.7c0.6,0.2,1.2,0.2,1.7,0.2c3,0,5.7-2,6.5-5c1-3.6-1.2-7.3-4.7-8.2
		l-15.8-4.2l14.6-8.4c3.2-1.8,4.3-5.9,2.5-9.2c-1.9-3.2-5.9-4.3-9.2-2.5l-14.6,8.4l4.2-15.8c1-3.6-1.2-7.3-4.7-8.2
		c-3.6-0.9-7.3,1.2-8.2,4.7l-7.7,28.7l-11,6.3l-10.4-6V54.5l21.1-21.1c2.6-2.6,2.6-6.9,0-9.5c-2.6-2.6-6.9-2.6-9.5,0l-11.6,11.6
		V18.7c0-3.7-3-6.7-6.7-6.7c-3.7,0-6.7,3-6.7,6.7v16.8l-11.5-11.5c-2.6-2.6-6.9-2.6-9.5,0c-2.6,2.6-2.6,6.9,0,9.5l21,21v12.8
		l-10.4,6l-11-6.3l-7.7-28.7c-1-3.6-4.6-5.7-8.2-4.7c-3.6,1-5.7,4.6-4.7,8.2l4.2,15.8l-14.6-8.4c-3.2-1.9-7.3-0.7-9.2,2.5
		c-1.8,3.2-0.7,7.3,2.5,9.2l14.6,8.4l-15.8,4.2c-3.6,1-5.7,4.6-4.7,8.2c0.8,3,3.5,5,6.5,5c0.6,0,1.2-0.1,1.7-0.2l28.9-7.7l10.9,6.3
		l0,12l-11.1,6.4l-28.7-7.7c-3.6-0.9-7.3,1.2-8.2,4.7c-1,3.6,1.2,7.3,4.7,8.2l15.8,4.2l-14.5,8.4c-3.2,1.9-4.3,6-2.5,9.2
		c1.2,2.2,3.5,3.4,5.8,3.4c1.1,0,2.3-0.3,3.4-0.9l14.6-8.4l-4.3,15.9c-1,3.6,1.2,7.3,4.7,8.2c0.6,0.2,1.2,0.2,1.7,0.2
		c3,0,5.7-2,6.5-5l7.7-28.8l11-6.3l10.3,6v13l-21,21c-2.6,2.6-2.6,6.9,0,9.5c1.3,1.3,3,2,4.7,2c1.7,0,3.4-0.6,4.7-2l11.5-11.5v16.8
		c0,3.7,3,6.7,6.7,6.7c3.7,0,6.7-3,6.7-6.7v-16.9l11.6,11.6c1.3,1.3,3,2,4.7,2c1.7,0,3.4-0.6,4.7-2c2.6-2.6,2.6-6.9,0-9.5
		l-21.1-21.1v-12.8l10.4-6l11,6.3l7.7,28.8c0.8,3,3.5,5,6.5,5c0.6,0,1.2-0.1,1.7-0.2c3.6-1,5.7-4.6,4.7-8.2l-4.3-15.9l14.6,8.4
		c1.1,0.6,2.2,0.9,3.4,0.9c2.3,0,4.6-1.2,5.8-3.4c1.9-3.2,0.8-7.3-2.5-9.2l-14.5-8.4l15.8-4.2c3.6-1,5.7-4.6,4.7-8.2
		C246.3,96.7,242.6,94.6,239,95.6z M185.8,96.9l-10.4,6l-10.4-6l0-12l10.4-6l10.4,6V96.9z"/>
</g>
</svg>
