<?xml version="1.0" encoding="utf-8"?>
<svg version="1.1" id="Calque_1" xmlns="http://www.w3.org/2000/svg" xmlns:xlink="http://www.w3.org/1999/xlink" x="0px" y="0px"
	 viewBox="0 0 612 612" style="enable-background:new 0 0 612 612;" xml:space="preserve">
<g>
	<g>
		<g>
			<path d="M499,506.8c8.3,0,15,7.9,15,17.5c0,9.7-6.7,17.5-15,17.5s-15-7.9-15-17.5C484,514.7,490.7,506.8,499,506.8z"/>
			<path d="M247,506.8c8.3,0,15,7.9,15,17.5c0,9.7-6.7,17.5-15,17.5s-15-7.9-15-17.5C232,514.7,238.7,506.8,247,506.8z"/>
			<path d="M139,506.8c8.3,0,15,7.9,15,17.5c0,9.7-6.7,17.5-15,17.5s-15-7.9-15-17.5C124,514.7,130.7,506.8,139,506.8z"/>
			<path d="M493,366.6h36c5,0,9,4.7,9,10.5s-4,10.5-9,10.5h-36c-5,0-9-4.7-9-10.5C484,371.3,488,366.6,493,366.6z"/>
			<path d="M16,349c0-67.7,47.1-122.7,105-122.7h15v-31.6c0-5.8,4-10.5,9-10.5h108c5,0,9,4.7,9,10.5v31.6h27
				c57.9,0,105,55,105,122.7c0,6.4-0.4,12.6-1.2,18.8c1.3-0.8,2.7-1.2,4.2-1.2h39V222.8c0-5.8,4-10.5,9-10.5h48c0,0,0,0,0,0
				c0,0,0,0,0,0h36c2.4,0,4.7,1.1,6.4,3.1l60,70.1c1.7,2,2.6,4.6,2.6,7.4v224.4c0,5.8-4,10.5-9,10.5h-24c-1.1,0-2.1-0.2-3.1-0.6
				c-0.6,19.4-7.8,37-18.9,49.7h10c5,0,9,4.7,9,10.5c0,5.8-4,10.5-9,10.5H85c-5,0-9-4.7-9-10.5c0-5.8,4-10.5,9-10.5h10
				c-11.7-13.4-19-32-19-52.6c0-3.5,0.2-7,0.6-10.4l-9.3,10.8c-1.8,2.1-4.1,3.1-6.4,3.1c-2.3,0-4.6-1-6.4-3.1
				c-3.5-4.1-3.5-10.8,0-14.9l36.9-43.1C47.9,451.9,16,404.7,16,349z M244,205.3h-90v21h90L244,205.3L244,205.3z M388,389.9
				c-2,6.5-4.4,12.8-7.2,18.7h7.2V389.9z M388,429.7h-19.9c-6,8-12.8,15.1-20.3,21H388V429.7z M436,387.6h-30v63.1h30V387.6z
				 M580,297.3l-54.7-64H502v91.2h78V297.3z M580,345.5h-87c-5,0-9-4.7-9-10.5V233.4h-30v143.7v73.6h126V345.5z M569.5,506.8H580
				v-35.1h-33L569.5,506.8z M499,576.9c24.8,0,45-23.6,45-52.6c0-29-20.2-52.6-45-52.6h0c-24.8,0-45,23.6-45,52.6
				C454,553.3,474.2,576.9,499,576.9z M455,576.9c-11.7-13.4-19-32-19-52.6c0-20.6,7.3-39.2,19-52.6H298.7l32.6,38.1
				c3.5,4.1,3.5,10.8,0,14.9c-3.5,4.1-9.2,4.1-12.7,0l-9.3-10.8c0.4,3.4,0.6,6.9,0.6,10.4c0,20.6-7.3,39.2-19,52.6H455z M247,576.9
				c24.8,0,45-23.6,45-52.6c0-29-20.2-52.6-45-52.6s-45,23.6-45,52.6C202,553.3,222.2,576.9,247,576.9z M203,471.8H183
				c3.8,4.4,7.2,9.3,10,14.7C195.8,481.1,199.1,476.1,203,471.8z M203,576.9c-3.8-4.4-7.2-9.3-10-14.7c-2.8,5.4-6.1,10.3-10,14.7
				H203z M139,576.9c24.8,0,45-23.6,45-52.6c0-29-20.2-52.6-45-52.6s-45,23.6-45,52.6C94,553.3,114.2,576.9,139,576.9z M121,450.7
				h156h12c48,0,87-45.6,87-101.7s-39-101.7-87-101.7H121c-48,0-87,45.6-87,101.7S73,450.7,121,450.7z"/>
		</g>
	</g>
</g>
</svg>
