<?xml version="1.0" encoding="iso-8859-1"?>
<!DOCTYPE svg PUBLIC "-//W3C//DTD SVG 1.1//EN" "http://www.w3.org/Graphics/SVG/1.1/DTD/svg11.dtd">
<svg version="1.1" id="Capa_1" xmlns="http://www.w3.org/2000/svg" xmlns:xlink="http://www.w3.org/1999/xlink" x="0px" y="0px"
	 viewBox="0 0 357.459 357.459" style="enable-background:new 0 0 357.459 357.459;" xml:space="preserve">
<g>
	<path d="M347.459,244.382h-0.695v-42.105c0-17.9-14.563-32.464-32.464-32.464h-40.326v-33.773
		c0-42.83-34.845-77.676-77.676-77.676H65.479c-22.442,0-41.178,17.542-42.648,39.854L11.99,244.382H10c-5.523,0-10,4.478-10,10
		s4.477,10,10,10h42.832c4.556,19.855,22.355,34.714,43.572,34.714s39.016-14.859,43.572-34.714h66.161
		c4.556,19.855,22.355,34.714,43.572,34.714c21.217,0,39.017-14.859,43.573-34.714h54.178c5.522,0,10-4.478,10-10
		S352.981,244.382,347.459,244.382z M135.083,108.497v61.315H37.575l4.547-61.315H135.083z M155.083,169.813v-61.315h91.195
		c0.224,0,0.443-0.019,0.663-0.033c4.481,8.197,7.032,17.594,7.032,27.575v33.773H155.083z M65.479,78.363h130.819
		c12.093,0,23.323,3.748,32.605,10.134H46.595C50.698,82.384,57.655,78.363,65.479,78.363z M36.092,189.813h39.129H314.3
		c6.873,0,12.464,5.591,12.464,12.464v42.105h-30.507h-2.977c-0.06-0.26-0.116-0.521-0.18-0.779
		c-4.837-19.463-22.453-33.934-43.392-33.934c-13.25,0-25.166,5.799-33.361,14.985c-4.927,5.523-8.5,12.273-10.211,19.728h-66.161
		c-4.556-19.854-22.355-34.713-43.572-34.713s-39.016,14.859-43.572,34.713H32.045L36.092,189.813z M224.995,254.382
		c0-13.627,11.086-24.713,24.713-24.713s24.714,11.086,24.714,24.713s-11.087,24.714-24.714,24.714S224.995,268.009,224.995,254.382
		z M96.404,279.096c-13.627,0-24.713-11.087-24.713-24.714s11.086-24.713,24.713-24.713s24.713,11.086,24.713,24.713
		S110.031,279.096,96.404,279.096z"/>
</g>
<g>
</g>
<g>
</g>
<g>
</g>
<g>
</g>
<g>
</g>
<g>
</g>
<g>
</g>
<g>
</g>
<g>
</g>
<g>
</g>
<g>
</g>
<g>
</g>
<g>
</g>
<g>
</g>
<g>
</g>
</svg>
