<?xml version="1.0" encoding="utf-8"?>
<!DOCTYPE svg PUBLIC "-//W3C//DTD SVG 1.1//EN" "http://www.w3.org/Graphics/SVG/1.1/DTD/svg11.dtd">
<svg xmlns="http://www.w3.org/2000/svg" xmlns:xlink="http://www.w3.org/1999/xlink" version="1.1" viewBox="0 0 512 512" enable-background="new 0 0 512 512" width="512px" height="512px">
  <g>
    <path d="m400.8,124.7h-90.6v-67.7h-270.9c-15.6,0-28.1,12.5-28.1,28.1v261.5c0,15.6 12.5,28.1 28.1,28.1h32.4c-0.8,4.1-1.2,8.2-1.2,12.5 0,37.5 30.2,67.7 67.7,67.7 37.5,0 68.8-30.2 67.7-67.7 0-4.3-0.4-8.4-1.2-12.5h85.5 19.8 19c-0.8,4.1-1.2,8.2-1.2,12.5 0,37.5 30.2,67.7 67.7,67.7 37.5,0 67.7-30.2 67.7-67.7 0-4.3-0.4-8.4-1.2-12.5h10.5c15.6,0 28.1-12.5 28.1-29.2v-96.9l-99.8-123.9zm-262.5,310.5c-26,0-47.9-21.9-47.9-47.9s21.9-47.9 47.9-47.9c27.1,0 47.9,21.9 47.9,47.9s-21.9,47.9-47.9,47.9zm59-81.3c-11.6-20.5-33.6-34.4-59-34.4-25.4,0-47.4,13.8-59,34.4h-40c-4.2,0-7.3-3.1-7.3-7.3v-261.4c0-4.2 3.1-7.3 7.3-7.3h251.1v276.1h-93.1zm198.3,81.2c-26,0-47.9-21.9-47.9-47.9s21.9-47.9 47.9-47.9c26,0 47.9,21.9 47.9,47.9s-21.9,47.9-47.9,47.9zm85.4-89.6c0,4.2-4.2,8.3-8.3,8.3h-18.1c-11.6-20.5-33.6-34.4-59-34.4-25.4,0-47.4,13.8-59,34.4h-25.4v-209.4h80.2l89.6,111.5v89.6z" fill="#006DF0"/>
  </g>
</svg>
